<?xml version="1.0" encoding="UTF-8"?>
<!DOCTYPE svg PUBLIC "-//W3C//DTD SVG 1.1//EN" "http://www.w3.org/Graphics/SVG/1.1/DTD/svg11.dtd">
<!-- Creator: CorelDRAW X6 -->
<svg xmlns="http://www.w3.org/2000/svg" xml:space="preserve" width="297mm" height="210mm" version="1.1" style="shape-rendering:geometricPrecision; text-rendering:geometricPrecision; image-rendering:optimizeQuality; fill-rule:evenodd; clip-rule:evenodd"
viewBox="0 0 29700 21000"
 xmlns:xlink="http://www.w3.org/1999/xlink">
 <defs>
  <style type="text/css">
   <![CDATA[
    .str2 {stroke:#7A75B5;stroke-width:7.62}
    .str0 {stroke:#F6A087;stroke-width:7.62}
    .str3 {stroke:#FEFEFE;stroke-width:7.62}
    .str1 {stroke:#FFF212;stroke-width:7.62}
    .fil7 {fill:none}
    .fil6 {fill:#373435}
    .fil9 {fill:#E6E7E8}
    .fil16 {fill:#FEFEFE}
    .fil5 {fill:#00A859;fill-rule:nonzero}
    .fil4 {fill:#0B6E45;fill-rule:nonzero}
    .fil3 {fill:#FEFEFE;fill-rule:nonzero}
    .fil17 {fill:#336666;fill-rule:nonzero}
    .fil0 {fill:url(#id14)}
    .fil12 {fill:url(#id15)}
    .fil15 {fill:url(#id16)}
    .fil14 {fill:url(#id17)}
    .fil8 {fill:url(#id18)}
    .fil11 {fill:url(#id19)}
    .fil10 {fill:url(#id20)}
    .fil13 {fill:url(#id21)}
    .fil45 {fill:url(#id22)}
    .fil94 {fill:url(#id23)}
    .fil108 {fill:url(#id24)}
    .fil122 {fill:url(#id25)}
    .fil143 {fill:url(#id26)}
    .fil150 {fill:url(#id27)}
    .fil80 {fill:url(#id28)}
    .fil87 {fill:url(#id29)}
    .fil31 {fill:url(#id30)}
    .fil66 {fill:url(#id31)}
    .fil59 {fill:url(#id32)}
    .fil24 {fill:url(#id33)}
    .fil73 {fill:url(#id34)}
    .fil52 {fill:url(#id35)}
    .fil101 {fill:url(#id36)}
    .fil38 {fill:url(#id37)}
    .fil129 {fill:url(#id38)}
    .fil136 {fill:url(#id39)}
    .fil115 {fill:url(#id40)}
    .fil64 {fill:url(#id41);fill-rule:nonzero}
    .fil61 {fill:url(#id42);fill-rule:nonzero}
    .fil57 {fill:url(#id43);fill-rule:nonzero}
    .fil54 {fill:url(#id44);fill-rule:nonzero}
    .fil22 {fill:url(#id45);fill-rule:nonzero}
    .fil19 {fill:url(#id46);fill-rule:nonzero}
    .fil67 {fill:url(#id47);fill-rule:nonzero}
    .fil70 {fill:url(#id48);fill-rule:nonzero}
    .fil60 {fill:url(#id49);fill-rule:nonzero}
    .fil63 {fill:url(#id50);fill-rule:nonzero}
    .fil53 {fill:url(#id51);fill-rule:nonzero}
    .fil56 {fill:url(#id52);fill-rule:nonzero}
    .fil27 {fill:url(#id53);fill-rule:nonzero}
    .fil65 {fill:url(#id54);fill-rule:nonzero}
    .fil62 {fill:url(#id55);fill-rule:nonzero}
    .fil58 {fill:url(#id56);fill-rule:nonzero}
    .fil55 {fill:url(#id57);fill-rule:nonzero}
    .fil30 {fill:url(#id58);fill-rule:nonzero}
    .fil2 {fill:url(#id59);fill-rule:nonzero}
    .fil1 {fill:url(#id60);fill-rule:nonzero}
    .fil68 {fill:url(#id61);fill-rule:nonzero}
    .fil69 {fill:url(#id62);fill-rule:nonzero}
    .fil71 {fill:url(#id63);fill-rule:nonzero}
    .fil72 {fill:url(#id64);fill-rule:nonzero}
    .fil50 {fill:url(#id65);fill-rule:nonzero}
    .fil47 {fill:url(#id66);fill-rule:nonzero}
    .fil51 {fill:url(#id67);fill-rule:nonzero}
    .fil48 {fill:url(#id68);fill-rule:nonzero}
    .fil20 {fill:url(#id69);fill-rule:nonzero}
    .fil23 {fill:url(#id70);fill-rule:nonzero}
    .fil100 {fill:url(#id71);fill-rule:nonzero}
    .fil40 {fill:url(#id72);fill-rule:nonzero}
    .fil43 {fill:url(#id73);fill-rule:nonzero}
    .fil29 {fill:url(#id74);fill-rule:nonzero}
    .fil26 {fill:url(#id75);fill-rule:nonzero}
    .fil18 {fill:url(#id76);fill-rule:nonzero}
    .fil21 {fill:url(#id77);fill-rule:nonzero}
    .fil97 {fill:url(#id78);fill-rule:nonzero}
    .fil82 {fill:url(#id79);fill-rule:nonzero}
    .fil85 {fill:url(#id80);fill-rule:nonzero}
    .fil78 {fill:url(#id81);fill-rule:nonzero}
    .fil75 {fill:url(#id82);fill-rule:nonzero}
    .fil99 {fill:url(#id83);fill-rule:nonzero}
    .fil138 {fill:url(#id84);fill-rule:nonzero}
    .fil146 {fill:url(#id85);fill-rule:nonzero}
    .fil149 {fill:url(#id86);fill-rule:nonzero}
    .fil49 {fill:url(#id87);fill-rule:nonzero}
    .fil79 {fill:url(#id88);fill-rule:nonzero}
    .fil28 {fill:url(#id89);fill-rule:nonzero}
    .fil25 {fill:url(#id90);fill-rule:nonzero}
    .fil46 {fill:url(#id91);fill-rule:nonzero}
    .fil96 {fill:url(#id92);fill-rule:nonzero}
    .fil145 {fill:url(#id93);fill-rule:nonzero}
    .fil41 {fill:url(#id94);fill-rule:nonzero}
    .fil44 {fill:url(#id95);fill-rule:nonzero}
    .fil141 {fill:url(#id96);fill-rule:nonzero}
    .fil148 {fill:url(#id97);fill-rule:nonzero}
    .fil86 {fill:url(#id98);fill-rule:nonzero}
    .fil90 {fill:url(#id99);fill-rule:nonzero}
    .fil76 {fill:url(#id100);fill-rule:nonzero}
    .fil92 {fill:url(#id101);fill-rule:nonzero}
    .fil93 {fill:url(#id102);fill-rule:nonzero}
    .fil83 {fill:url(#id103);fill-rule:nonzero}
    .fil89 {fill:url(#id104);fill-rule:nonzero}
    .fil34 {fill:url(#id105);fill-rule:nonzero}
    .fil36 {fill:url(#id106);fill-rule:nonzero}
    .fil33 {fill:url(#id107);fill-rule:nonzero}
    .fil37 {fill:url(#id108);fill-rule:nonzero}
    .fil139 {fill:url(#id109);fill-rule:nonzero}
    .fil142 {fill:url(#id110);fill-rule:nonzero}
    .fil106 {fill:url(#id111);fill-rule:nonzero}
    .fil103 {fill:url(#id112);fill-rule:nonzero}
    .fil107 {fill:url(#id113);fill-rule:nonzero}
    .fil104 {fill:url(#id114);fill-rule:nonzero}
    .fil98 {fill:url(#id115);fill-rule:nonzero}
    .fil95 {fill:url(#id116);fill-rule:nonzero}
    .fil39 {fill:url(#id117);fill-rule:nonzero}
    .fil42 {fill:url(#id118);fill-rule:nonzero}
    .fil144 {fill:url(#id119);fill-rule:nonzero}
    .fil147 {fill:url(#id120);fill-rule:nonzero}
    .fil74 {fill:url(#id121);fill-rule:nonzero}
    .fil77 {fill:url(#id122);fill-rule:nonzero}
    .fil81 {fill:url(#id123);fill-rule:nonzero}
    .fil84 {fill:url(#id124);fill-rule:nonzero}
    .fil88 {fill:url(#id125);fill-rule:nonzero}
    .fil91 {fill:url(#id126);fill-rule:nonzero}
    .fil137 {fill:url(#id127);fill-rule:nonzero}
    .fil140 {fill:url(#id128);fill-rule:nonzero}
    .fil35 {fill:url(#id129);fill-rule:nonzero}
    .fil32 {fill:url(#id130);fill-rule:nonzero}
    .fil102 {fill:url(#id131);fill-rule:nonzero}
    .fil105 {fill:url(#id132);fill-rule:nonzero}
    .fil135 {fill:url(#id133);fill-rule:nonzero}
    .fil130 {fill:url(#id134);fill-rule:nonzero}
    .fil134 {fill:url(#id135);fill-rule:nonzero}
    .fil132 {fill:url(#id136);fill-rule:nonzero}
    .fil133 {fill:url(#id137);fill-rule:nonzero}
    .fil131 {fill:url(#id138);fill-rule:nonzero}
    .fil114 {fill:url(#id139);fill-rule:nonzero}
    .fil109 {fill:url(#id140);fill-rule:nonzero}
    .fil113 {fill:url(#id141);fill-rule:nonzero}
    .fil111 {fill:url(#id142);fill-rule:nonzero}
    .fil112 {fill:url(#id143);fill-rule:nonzero}
    .fil110 {fill:url(#id144);fill-rule:nonzero}
    .fil128 {fill:url(#id145);fill-rule:nonzero}
    .fil123 {fill:url(#id146);fill-rule:nonzero}
    .fil127 {fill:url(#id147);fill-rule:nonzero}
    .fil125 {fill:url(#id148);fill-rule:nonzero}
    .fil126 {fill:url(#id149);fill-rule:nonzero}
    .fil124 {fill:url(#id150);fill-rule:nonzero}
    .fil121 {fill:url(#id151);fill-rule:nonzero}
    .fil116 {fill:url(#id152);fill-rule:nonzero}
    .fil120 {fill:url(#id153);fill-rule:nonzero}
    .fil118 {fill:url(#id154);fill-rule:nonzero}
    .fil119 {fill:url(#id155);fill-rule:nonzero}
    .fil117 {fill:url(#id156);fill-rule:nonzero}
   ]]>
  </style>
   <mask id="id0">
  <linearGradient id="id1" gradientUnits="userSpaceOnUse" x1="20269.7" y1="12032.5" x2="20407.7" y2="9172.97">
   <stop offset="0" style="stop-opacity:1; stop-color:white"/>
   <stop offset="0.65098" style="stop-opacity:0.501961; stop-color:white"/>
   <stop offset="1" style="stop-opacity:0; stop-color:white"/>
  </linearGradient>
    <rect style="fill:url(#id1)" x="16442" y="8221" width="7793" height="4763"/>
   </mask>
   <mask id="id2">
  <linearGradient id="id3" gradientUnits="userSpaceOnUse" x1="12976.4" y1="12032.5" x2="13114.4" y2="9172.97">
   <stop offset="0" style="stop-opacity:1; stop-color:white"/>
   <stop offset="0.65098" style="stop-opacity:0.501961; stop-color:white"/>
   <stop offset="1" style="stop-opacity:0; stop-color:white"/>
  </linearGradient>
    <rect style="fill:url(#id3)" x="9149" y="8221" width="7793" height="4763"/>
   </mask>
   <mask id="id4">
  <linearGradient id="id5" gradientUnits="userSpaceOnUse" x1="17264.8" y1="15911.2" x2="17311.4" y2="13029.6">
   <stop offset="0" style="stop-opacity:1; stop-color:white"/>
   <stop offset="0.701961" style="stop-opacity:0.501961; stop-color:white"/>
   <stop offset="1" style="stop-opacity:0; stop-color:white"/>
  </linearGradient>
    <rect style="fill:url(#id5)" x="14596" y="12445" width="5384" height="4051"/>
   </mask>
   <mask id="id6">
  <linearGradient id="id7" gradientUnits="userSpaceOnUse" x1="21430.6" y1="15554.6" x2="21566.5" y2="13273.6">
   <stop offset="0" style="stop-opacity:1; stop-color:white"/>
   <stop offset="0.65098" style="stop-opacity:0.501961; stop-color:white"/>
   <stop offset="1" style="stop-opacity:0; stop-color:white"/>
  </linearGradient>
    <rect style="fill:url(#id7)" x="17661" y="12513" width="7676" height="3803"/>
   </mask>
   <mask id="id8">
  <linearGradient id="id9" gradientUnits="userSpaceOnUse" x1="24248" y1="12986.9" x2="24319.4" y2="11706.6">
   <stop offset="0" style="stop-opacity:1; stop-color:white"/>
   <stop offset="0.65098" style="stop-opacity:0.501961; stop-color:white"/>
   <stop offset="1" style="stop-opacity:0; stop-color:white"/>
  </linearGradient>
    <rect style="fill:url(#id9)" x="22237" y="11261" width="4094" height="2171"/>
   </mask>
   <mask id="id10">
  <linearGradient id="id11" gradientUnits="userSpaceOnUse" x1="9439.36" y1="14414.5" x2="9546.06" y2="12142.3">
   <stop offset="0" style="stop-opacity:1; stop-color:white"/>
   <stop offset="0.65098" style="stop-opacity:0.501961; stop-color:white"/>
   <stop offset="1" style="stop-opacity:0; stop-color:white"/>
  </linearGradient>
    <rect style="fill:url(#id11)" x="6466" y="11377" width="6053" height="3803"/>
   </mask>
   <mask id="id12">
  <linearGradient id="id13" gradientUnits="userSpaceOnUse" x1="13163.7" y1="15910.4" x2="12919.9" y2="11929">
   <stop offset="0" style="stop-opacity:1; stop-color:white"/>
   <stop offset="0.301961" style="stop-opacity:0.501961; stop-color:white"/>
   <stop offset="1" style="stop-opacity:0; stop-color:white"/>
  </linearGradient>
    <rect style="fill:url(#id13)" x="10516" y="11850" width="5051" height="4139"/>
   </mask>
  <linearGradient id="id14" gradientUnits="userSpaceOnUse" x1="14660" y1="2662.5" x2="14660" y2="17662.5">
   <stop offset="0" style="stop-color:#39B0E4"/>
   <stop offset="1" style="stop-color:#FEFEFE"/>
  </linearGradient>
  <linearGradient id="id15" gradientUnits="userSpaceOnUse" x1="13766.1" y1="9256.34" x2="16020.2" y2="9256.34">
   <stop offset="0" style="stop-color:#51C500"/>
   <stop offset="1" style="stop-color:#FEFEFE"/>
  </linearGradient>
  <linearGradient id="id16" gradientUnits="userSpaceOnUse" x1="18364.6" y1="10298" x2="19356.4" y2="10298">
   <stop offset="0" style="stop-color:#006633"/>
   <stop offset="1" style="stop-color:#FEFEFE"/>
  </linearGradient>
  <linearGradient id="id17" gradientUnits="userSpaceOnUse" x1="20528.6" y1="10298" x2="21520.4" y2="10298">
   <stop offset="0" style="stop-color:#2BB454"/>
   <stop offset="1" style="stop-color:#FEFEFE"/>
  </linearGradient>
  <linearGradient id="id18" gradientUnits="userSpaceOnUse" x1="19446.6" y1="10298" x2="20438.4" y2="10298">
   <stop offset="0" style="stop-color:#7AC14E"/>
   <stop offset="1" style="stop-color:#FEFEFE"/>
  </linearGradient>
  <linearGradient id="id19" gradientUnits="userSpaceOnUse" xlink:href="#id15" x1="13405.4" y1="11129.7" x2="16380.9" y2="11129.7">
  </linearGradient>
  <linearGradient id="id20" gradientUnits="userSpaceOnUse" x1="13450.5" y1="12349.8" x2="13450.5" y2="8652.96">
   <stop offset="0" style="stop-color:#57A695"/>
   <stop offset="1" style="stop-color:#FEFEFE"/>
  </linearGradient>
  <linearGradient id="id21" gradientUnits="userSpaceOnUse" x1="16335.8" y1="13612.1" x2="16335.8" y2="9915.29">
   <stop offset="0" style="stop-color:#09B821"/>
   <stop offset="1" style="stop-color:#FEFEFE"/>
  </linearGradient>
  <radialGradient id="id22" gradientUnits="objectBoundingBox" cx="49.9983%" cy="50%" r="50.0017%" fx="49.9983%" fy="50%">
   <stop offset="0" style="stop-color:#FEFEFE"/>
   <stop offset="1" style="stop-color:#FFF212"/>
  </radialGradient>
  <radialGradient id="id23" gradientUnits="objectBoundingBox" xlink:href="#id22" cx="50.0025%" cy="50.0027%" r="50.0025%" fx="50.0025%" fy="50.0027%">
  </radialGradient>
  <radialGradient id="id24" gradientUnits="objectBoundingBox" xlink:href="#id22" cx="50%" cy="50%" r="50%" fx="50%" fy="50%">
  </radialGradient>
  <radialGradient id="id25" gradientUnits="objectBoundingBox" xlink:href="#id22" cx="49.9974%" cy="50%" r="50%" fx="49.9974%" fy="50%">
  </radialGradient>
  <radialGradient id="id26" gradientUnits="objectBoundingBox" xlink:href="#id22" cx="50%" cy="50.0022%" r="50%" fx="50%" fy="50.0022%">
  </radialGradient>
  <radialGradient id="id27" gradientUnits="objectBoundingBox" xlink:href="#id22" cx="49.9989%" cy="50%" r="50.0011%" fx="49.9989%" fy="50%">
  </radialGradient>
  <radialGradient id="id28" gradientUnits="objectBoundingBox" xlink:href="#id22" cx="49.9974%" cy="50.0033%" r="50.0026%" fx="49.9974%" fy="50.0033%">
  </radialGradient>
  <radialGradient id="id29" gradientUnits="objectBoundingBox" xlink:href="#id22" cx="49.9985%" cy="50%" r="50.0015%" fx="49.9985%" fy="50%">
  </radialGradient>
  <radialGradient id="id30" gradientUnits="objectBoundingBox" xlink:href="#id22" cx="50.0011%" cy="50%" r="50.0011%" fx="50.0011%" fy="50%">
  </radialGradient>
  <radialGradient id="id31" gradientUnits="objectBoundingBox" xlink:href="#id22" cx="50%" cy="50%" r="50%" fx="50%" fy="50%">
  </radialGradient>
  <radialGradient id="id32" gradientUnits="objectBoundingBox" xlink:href="#id22" cx="49.9981%" cy="50%" r="50%" fx="49.9981%" fy="50%">
  </radialGradient>
  <radialGradient id="id33" gradientUnits="objectBoundingBox" xlink:href="#id22" cx="49.9982%" cy="50.0018%" r="50.0018%" fx="49.9982%" fy="50.0018%">
  </radialGradient>
  <radialGradient id="id34" gradientUnits="objectBoundingBox" xlink:href="#id22" cx="49.9979%" cy="50.002%" r="50.002%" fx="49.9979%" fy="50.002%">
  </radialGradient>
  <radialGradient id="id35" gradientUnits="objectBoundingBox" xlink:href="#id22" cx="50%" cy="50%" r="50%" fx="50%" fy="50%">
  </radialGradient>
  <radialGradient id="id36" gradientUnits="objectBoundingBox" xlink:href="#id22" cx="50%" cy="50%" r="50%" fx="50%" fy="50%">
  </radialGradient>
  <radialGradient id="id37" gradientUnits="objectBoundingBox" xlink:href="#id22" cx="50%" cy="50%" r="50%" fx="50%" fy="50%">
  </radialGradient>
  <radialGradient id="id38" gradientUnits="objectBoundingBox" xlink:href="#id22" cx="50%" cy="50%" r="50%" fx="50%" fy="50%">
  </radialGradient>
  <radialGradient id="id39" gradientUnits="objectBoundingBox" xlink:href="#id22" cx="50%" cy="50.0021%" r="50.0021%" fx="50%" fy="50.0021%">
  </radialGradient>
  <radialGradient id="id40" gradientUnits="objectBoundingBox" xlink:href="#id22" cx="49.9966%" cy="50%" r="50%" fx="49.9966%" fy="50%">
  </radialGradient>
  <linearGradient id="id41" gradientUnits="userSpaceOnUse" x1="16794" y1="7400.94" x2="17098.5" y2="7400.94">
   <stop offset="0" style="stop-color:#ED3237"/>
   <stop offset="1" style="stop-color:#FEFEFE"/>
  </linearGradient>
  <linearGradient id="id42" gradientUnits="userSpaceOnUse" xlink:href="#id41" x1="16994.7" y1="7542.65" x2="17299.2" y2="7542.65">
  </linearGradient>
  <linearGradient id="id43" gradientUnits="userSpaceOnUse" xlink:href="#id41" x1="18815.4" y1="4708.83" x2="19355" y2="4708.83">
  </linearGradient>
  <linearGradient id="id44" gradientUnits="userSpaceOnUse" xlink:href="#id41" x1="19171" y1="4959.96" x2="19710.5" y2="4959.96">
  </linearGradient>
  <linearGradient id="id45" gradientUnits="userSpaceOnUse" xlink:href="#id41" x1="20121.5" y1="5489.65" x2="20661" y2="5489.65">
  </linearGradient>
  <linearGradient id="id46" gradientUnits="userSpaceOnUse" xlink:href="#id41" x1="20429" y1="5740.78" x2="20968.6" y2="5740.78">
  </linearGradient>
  <linearGradient id="id47" gradientUnits="userSpaceOnUse" x1="20501.3" y1="7053.01" x2="20782" y2="7053.01">
   <stop offset="0" style="stop-color:#FD9C00"/>
   <stop offset="1" style="stop-color:#FEFEFE"/>
  </linearGradient>
  <linearGradient id="id48" gradientUnits="userSpaceOnUse" xlink:href="#id47" x1="20501.3" y1="6737.06" x2="20782" y2="6737.06">
  </linearGradient>
  <linearGradient id="id49" gradientUnits="userSpaceOnUse" xlink:href="#id41" x1="16950.7" y1="7567.47" x2="17126.7" y2="7567.47">
  </linearGradient>
  <linearGradient id="id50" gradientUnits="userSpaceOnUse" xlink:href="#id41" x1="16950.7" y1="7369.36" x2="17126.7" y2="7369.36">
  </linearGradient>
  <linearGradient id="id51" gradientUnits="userSpaceOnUse" xlink:href="#id41" x1="19093.1" y1="5003.9" x2="19405" y2="5003.9">
  </linearGradient>
  <linearGradient id="id52" gradientUnits="userSpaceOnUse" xlink:href="#id41" x1="19093.1" y1="4652.83" x2="19405" y2="4652.83">
  </linearGradient>
  <linearGradient id="id53" gradientUnits="userSpaceOnUse" xlink:href="#id41" x1="14487" y1="4909.21" x2="15334.3" y2="4909.21">
  </linearGradient>
  <linearGradient id="id54" gradientUnits="userSpaceOnUse" xlink:href="#id41" x1="16796.5" y1="7533.26" x2="17101" y2="7533.26">
  </linearGradient>
  <linearGradient id="id55" gradientUnits="userSpaceOnUse" xlink:href="#id41" x1="16998.3" y1="7388.57" x2="17302.8" y2="7388.57">
  </linearGradient>
  <linearGradient id="id56" gradientUnits="userSpaceOnUse" xlink:href="#id41" x1="18819.9" y1="4943.28" x2="19359.5" y2="4943.28">
  </linearGradient>
  <linearGradient id="id57" gradientUnits="userSpaceOnUse" xlink:href="#id41" x1="19177.5" y1="4686.9" x2="19717.1" y2="4686.9">
  </linearGradient>
  <linearGradient id="id58" gradientUnits="userSpaceOnUse" xlink:href="#id41" x1="14019.6" y1="5214.32" x2="14866.9" y2="5214.32">
  </linearGradient>
  <linearGradient id="id59" gradientUnits="userSpaceOnUse" x1="13045.4" y1="12974.3" x2="13045.4" y2="8231.2">
   <stop offset="0" style="stop-color:#00A859"/>
   <stop offset="1" style="stop-color:#FEFEFE"/>
  </linearGradient>
  <linearGradient id="id60" gradientUnits="userSpaceOnUse" xlink:href="#id59" x1="20338.7" y1="12974.3" x2="20338.7" y2="8231.2">
  </linearGradient>
  <linearGradient id="id61" gradientUnits="userSpaceOnUse" x1="21060.4" y1="7018.69" x2="20567.8" y2="7008.21">
   <stop offset="0" style="stop-color:#FF6633"/>
   <stop offset="0.490196" style="stop-color:#FFB298"/>
   <stop offset="1" style="stop-color:#FEFEFE"/>
  </linearGradient>
  <linearGradient id="id62" gradientUnits="userSpaceOnUse" xlink:href="#id61" x1="21066.3" y1="6772.95" x2="20573.7" y2="6762.47">
  </linearGradient>
  <linearGradient id="id63" gradientUnits="userSpaceOnUse" x1="20250.2" y1="6778.07" x2="20738.1" y2="6796.83">
   <stop offset="0" style="stop-color:#FF6633"/>
   <stop offset="1" style="stop-color:#FEFEFE"/>
  </linearGradient>
  <linearGradient id="id64" gradientUnits="userSpaceOnUse" xlink:href="#id63" x1="20254.2" y1="6989.06" x2="20742.1" y2="7007.82">
  </linearGradient>
  <linearGradient id="id65" gradientUnits="userSpaceOnUse" xlink:href="#id41" x1="15582.2" y1="6599.72" x2="16467.6" y2="6445.42">
  </linearGradient>
  <linearGradient id="id66" gradientUnits="userSpaceOnUse" xlink:href="#id41" x1="16151.5" y1="6779.92" x2="17036.9" y2="6625.62">
  </linearGradient>
  <linearGradient id="id67" gradientUnits="userSpaceOnUse" xlink:href="#id41" x1="15570.4" y1="6862.62" x2="16468.2" y2="6706.16">
  </linearGradient>
  <linearGradient id="id68" gradientUnits="userSpaceOnUse" xlink:href="#id41" x1="16171.1" y1="6472.68" x2="17069" y2="6316.22">
  </linearGradient>
  <linearGradient id="id69" gradientUnits="userSpaceOnUse" xlink:href="#id41" x1="20482.6" y1="5467.72" x2="21032.5" y2="5467.72">
  </linearGradient>
  <linearGradient id="id70" gradientUnits="userSpaceOnUse" xlink:href="#id41" x1="20076" y1="5724.1" x2="20625.9" y2="5724.1">
  </linearGradient>
  <linearGradient id="id71" gradientUnits="userSpaceOnUse" x1="20424.1" y1="4515.9" x2="20819.3" y2="4389.82">
   <stop offset="0" style="stop-color:#FFF688"/>
   <stop offset="1" style="stop-color:#FEFEFE"/>
  </linearGradient>
  <linearGradient id="id72" gradientUnits="userSpaceOnUse" xlink:href="#id41" x1="22142.2" y1="4137.72" x2="21518.5" y2="4383.1">
  </linearGradient>
  <linearGradient id="id73" gradientUnits="userSpaceOnUse" xlink:href="#id41" x1="22569.8" y1="4233.57" x2="21946.1" y2="4478.95">
  </linearGradient>
  <linearGradient id="id74" gradientUnits="userSpaceOnUse" xlink:href="#id41" x1="13917.1" y1="4935.32" x2="14783.2" y2="4935.32">
  </linearGradient>
  <linearGradient id="id75" gradientUnits="userSpaceOnUse" xlink:href="#id41" x1="14567.5" y1="5234.16" x2="15433.7" y2="5234.16">
  </linearGradient>
  <linearGradient id="id76" gradientUnits="userSpaceOnUse" xlink:href="#id41" x1="20339.2" y1="5784.72" x2="20658.3" y2="5784.72">
  </linearGradient>
  <linearGradient id="id77" gradientUnits="userSpaceOnUse" xlink:href="#id41" x1="20406.3" y1="5433.66" x2="20725.4" y2="5433.66">
  </linearGradient>
  <linearGradient id="id78" gradientUnits="userSpaceOnUse" xlink:href="#id71" x1="20642.4" y1="4307.15" x2="21022.5" y2="4185.85">
  </linearGradient>
  <linearGradient id="id79" gradientUnits="userSpaceOnUse" xlink:href="#id71" x1="23876.6" y1="5277.89" x2="24510.8" y2="5528.23">
  </linearGradient>
  <linearGradient id="id80" gradientUnits="userSpaceOnUse" xlink:href="#id71" x1="23546.3" y1="4922.29" x2="24190.3" y2="5176.45">
  </linearGradient>
  <linearGradient id="id81" gradientUnits="userSpaceOnUse" xlink:href="#id71" x1="19182.2" y1="6350.63" x2="19557.6" y2="6508.13">
  </linearGradient>
  <linearGradient id="id82" gradientUnits="userSpaceOnUse" xlink:href="#id71" x1="19376.3" y1="6572.84" x2="19746.2" y2="6728.04">
  </linearGradient>
  <linearGradient id="id83" gradientUnits="userSpaceOnUse" xlink:href="#id71" x1="20387.3" y1="4400.43" x2="20776.1" y2="4276.37">
  </linearGradient>
  <linearGradient id="id84" gradientUnits="userSpaceOnUse" xlink:href="#id61" x1="18635.1" y1="5911.34" x2="18089.4" y2="5619.44">
  </linearGradient>
  <linearGradient id="id85" gradientUnits="userSpaceOnUse" xlink:href="#id61" x1="17320.5" y1="4772.25" x2="16429.4" y2="4379.21">
  </linearGradient>
  <linearGradient id="id86" gradientUnits="userSpaceOnUse" xlink:href="#id63" x1="15763.6" y1="4461.22" x2="16650.3" y2="4865.96">
  </linearGradient>
  <linearGradient id="id87" gradientUnits="userSpaceOnUse" xlink:href="#id41" x1="16034.9" y1="6458.52" x2="16558.7" y2="6367.26">
  </linearGradient>
  <linearGradient id="id88" gradientUnits="userSpaceOnUse" xlink:href="#id71" x1="19137.8" y1="6463.44" x2="19514.3" y2="6621.4">
  </linearGradient>
  <linearGradient id="id89" gradientUnits="userSpaceOnUse" xlink:href="#id41" x1="14338.5" y1="4868.68" x2="14835.5" y2="4868.68">
  </linearGradient>
  <linearGradient id="id90" gradientUnits="userSpaceOnUse" xlink:href="#id41" x1="14467.3" y1="5286.48" x2="14964.3" y2="5286.48">
  </linearGradient>
  <linearGradient id="id91" gradientUnits="userSpaceOnUse" xlink:href="#id41" x1="16015.5" y1="6852.51" x2="16539.3" y2="6761.25">
  </linearGradient>
  <linearGradient id="id92" gradientUnits="userSpaceOnUse" xlink:href="#id71" x1="20680.9" y1="4443" x2="21060.6" y2="4321.86">
  </linearGradient>
  <linearGradient id="id93" gradientUnits="userSpaceOnUse" xlink:href="#id61" x1="17215.7" y1="5121.89" x2="16333" y2="4732.57">
  </linearGradient>
  <linearGradient id="id94" gradientUnits="userSpaceOnUse" xlink:href="#id41" x1="22160.6" y1="4417.63" x2="21538.3" y2="4662.43">
  </linearGradient>
  <linearGradient id="id95" gradientUnits="userSpaceOnUse" xlink:href="#id41" x1="22541.1" y1="3998.28" x2="21918.9" y2="4243.08">
  </linearGradient>
  <linearGradient id="id96" gradientUnits="userSpaceOnUse" xlink:href="#id63" x1="17869.1" y1="5270.75" x2="18400.3" y2="5563.59">
  </linearGradient>
  <linearGradient id="id97" gradientUnits="userSpaceOnUse" xlink:href="#id63" x1="15837.1" y1="4154.18" x2="16716.5" y2="4555.56">
  </linearGradient>
  <linearGradient id="id98" gradientUnits="userSpaceOnUse" xlink:href="#id71" x1="23474.1" y1="5104.05" x2="24113.3" y2="5356.35">
  </linearGradient>
  <linearGradient id="id99" gradientUnits="userSpaceOnUse" xlink:href="#id71" x1="14757.3" y1="6346.06" x2="14394.7" y2="6621.52">
  </linearGradient>
  <linearGradient id="id100" gradientUnits="userSpaceOnUse" xlink:href="#id71" x1="19436.6" y1="6445.08" x2="19804" y2="6599.26">
  </linearGradient>
  <linearGradient id="id101" gradientUnits="userSpaceOnUse" xlink:href="#id71" x1="14993.4" y1="6150.61" x2="14624" y2="6431.13">
  </linearGradient>
  <linearGradient id="id102" gradientUnits="userSpaceOnUse" xlink:href="#id71" x1="14905.9" y1="6044.72" x2="14539.5" y2="6323.04">
  </linearGradient>
  <linearGradient id="id103" gradientUnits="userSpaceOnUse" xlink:href="#id71" x1="23982.2" y1="5074.68" x2="24606.1" y2="5320.94">
  </linearGradient>
  <linearGradient id="id104" gradientUnits="userSpaceOnUse" xlink:href="#id71" x1="14663.8" y1="6216.44" x2="14303.5" y2="6490.08">
  </linearGradient>
  <linearGradient id="id105" gradientUnits="userSpaceOnUse" xlink:href="#id41" x1="22077.5" y1="6000.18" x2="22746.4" y2="5539.94">
  </linearGradient>
  <linearGradient id="id106" gradientUnits="userSpaceOnUse" xlink:href="#id41" x1="21645.4" y1="6327.95" x2="22314" y2="5867.85">
  </linearGradient>
  <linearGradient id="id107" gradientUnits="userSpaceOnUse" xlink:href="#id41" x1="22225.1" y1="6276.95" x2="22893.7" y2="5816.89">
  </linearGradient>
  <linearGradient id="id108" gradientUnits="userSpaceOnUse" xlink:href="#id41" x1="21784.3" y1="6557.18" x2="22453.1" y2="6096.96">
  </linearGradient>
  <linearGradient id="id109" gradientUnits="userSpaceOnUse" xlink:href="#id61" x1="18777" y1="5733.2" x2="18241.2" y2="5446.58">
  </linearGradient>
  <linearGradient id="id110" gradientUnits="userSpaceOnUse" xlink:href="#id63" x1="17752.9" y1="5426.56" x2="18284.6" y2="5719.6">
  </linearGradient>
  <linearGradient id="id111" gradientUnits="userSpaceOnUse" xlink:href="#id63" x1="17812.9" y1="6539.38" x2="18273.3" y2="6932.1">
  </linearGradient>
  <linearGradient id="id112" gradientUnits="userSpaceOnUse" xlink:href="#id61" x1="18412.3" y1="7388.65" x2="17947.4" y2="7005.69">
  </linearGradient>
  <linearGradient id="id113" gradientUnits="userSpaceOnUse" xlink:href="#id63" x1="17659" y1="6748.34" x2="18113.9" y2="7136.34">
  </linearGradient>
  <linearGradient id="id114" gradientUnits="userSpaceOnUse" xlink:href="#id61" x1="18603.8" y1="7155.21" x2="18141" y2="6774.01">
  </linearGradient>
  <linearGradient id="id115" gradientUnits="userSpaceOnUse" xlink:href="#id71" x1="20576.5" y1="4309.7" x2="20799.4" y2="4238.56">
  </linearGradient>
  <linearGradient id="id116" gradientUnits="userSpaceOnUse" xlink:href="#id71" x1="20631.7" y1="4482.59" x2="20854.6" y2="4411.45">
  </linearGradient>
  <linearGradient id="id117" gradientUnits="userSpaceOnUse" xlink:href="#id41" x1="22222.6" y1="4059.86" x2="21864.3" y2="4200.82">
  </linearGradient>
  <linearGradient id="id118" gradientUnits="userSpaceOnUse" xlink:href="#id41" x1="22256.7" y1="4415.62" x2="21898.4" y2="4556.58">
  </linearGradient>
  <linearGradient id="id119" gradientUnits="userSpaceOnUse" xlink:href="#id47" x1="16189" y1="4743.52" x2="16705.2" y2="4961.44">
  </linearGradient>
  <linearGradient id="id120" gradientUnits="userSpaceOnUse" xlink:href="#id47" x1="16304.6" y1="4285.78" x2="16820.8" y2="4503.7">
  </linearGradient>
  <linearGradient id="id121" gradientUnits="userSpaceOnUse" xlink:href="#id71" x1="19313.1" y1="6570.95" x2="19531.4" y2="6662.55">
  </linearGradient>
  <linearGradient id="id122" gradientUnits="userSpaceOnUse" xlink:href="#id71" x1="19383.3" y1="6403.62" x2="19601.6" y2="6495.22">
  </linearGradient>
  <linearGradient id="id123" gradientUnits="userSpaceOnUse" xlink:href="#id71" x1="23775.5" y1="5277.37" x2="24139.1" y2="5420.93">
  </linearGradient>
  <linearGradient id="id124" gradientUnits="userSpaceOnUse" xlink:href="#id71" x1="23894.9" y1="5009.65" x2="24258.5" y2="5153.21">
  </linearGradient>
  <linearGradient id="id125" gradientUnits="userSpaceOnUse" xlink:href="#id71" x1="14700.7" y1="6156.04" x2="14490" y2="6316.08">
  </linearGradient>
  <linearGradient id="id126" gradientUnits="userSpaceOnUse" xlink:href="#id71" x1="14825" y1="6319.62" x2="14614.3" y2="6479.66">
  </linearGradient>
  <linearGradient id="id127" gradientUnits="userSpaceOnUse" xlink:href="#id47" x1="17988.1" y1="5613.04" x2="18306.9" y2="5777.28">
  </linearGradient>
  <linearGradient id="id128" gradientUnits="userSpaceOnUse" xlink:href="#id47" x1="18168.4" y1="5383.04" x2="18487.2" y2="5547.28">
  </linearGradient>
  <linearGradient id="id129" gradientUnits="userSpaceOnUse" xlink:href="#id41" x1="21956.9" y1="6036.03" x2="22341.3" y2="5771.45">
  </linearGradient>
  <linearGradient id="id130" gradientUnits="userSpaceOnUse" xlink:href="#id41" x1="22156.8" y1="6384.89" x2="22541.3" y2="6120.31">
  </linearGradient>
  <linearGradient id="id131" gradientUnits="userSpaceOnUse" xlink:href="#id47" x1="17847" y1="6996.58" x2="18119.7" y2="7211.64">
  </linearGradient>
  <linearGradient id="id132" gradientUnits="userSpaceOnUse" xlink:href="#id47" x1="18087.3" y1="6691.8" x2="18360" y2="6906.86">
  </linearGradient>
  <radialGradient id="id133" gradientUnits="objectBoundingBox" cx="50%" cy="50.0018%" r="50%" fx="50%" fy="50.0018%">
   <stop offset="0" style="stop-color:#FEFEFE"/>
   <stop offset="1" style="stop-color:#C8C5E2"/>
  </radialGradient>
  <radialGradient id="id134" gradientUnits="objectBoundingBox" xlink:href="#id133" cx="50%" cy="50.0011%" r="50.0011%" fx="50%" fy="50.0011%">
  </radialGradient>
  <radialGradient id="id135" gradientUnits="objectBoundingBox" xlink:href="#id133" cx="50%" cy="50%" r="50%" fx="50%" fy="50%">
  </radialGradient>
  <radialGradient id="id136" gradientUnits="objectBoundingBox" xlink:href="#id133" cx="50%" cy="50.0018%" r="50%" fx="50%" fy="50.0018%">
  </radialGradient>
  <radialGradient id="id137" gradientUnits="objectBoundingBox" xlink:href="#id133" cx="50%" cy="50%" r="50%" fx="50%" fy="50%">
  </radialGradient>
  <radialGradient id="id138" gradientUnits="objectBoundingBox" xlink:href="#id133" cx="50%" cy="50.001%" r="50.001%" fx="50%" fy="50.001%">
  </radialGradient>
  <radialGradient id="id139" gradientUnits="objectBoundingBox" xlink:href="#id133" cx="49.9985%" cy="50.0029%" r="50.0015%" fx="49.9985%" fy="50.0029%">
  </radialGradient>
  <radialGradient id="id140" gradientUnits="objectBoundingBox" xlink:href="#id133" cx="49.9979%" cy="50%" r="50%" fx="49.9979%" fy="50%">
  </radialGradient>
  <radialGradient id="id141" gradientUnits="objectBoundingBox" xlink:href="#id133" cx="50%" cy="50%" r="50%" fx="50%" fy="50%">
  </radialGradient>
  <radialGradient id="id142" gradientUnits="objectBoundingBox" xlink:href="#id133" cx="49.9985%" cy="50%" r="50.0015%" fx="49.9985%" fy="50%">
  </radialGradient>
  <radialGradient id="id143" gradientUnits="objectBoundingBox" xlink:href="#id133" cx="49.9979%" cy="50.0018%" r="50.0018%" fx="49.9979%" fy="50.0018%">
  </radialGradient>
  <radialGradient id="id144" gradientUnits="objectBoundingBox" xlink:href="#id133" cx="49.9972%" cy="50.0016%" r="50.0016%" fx="49.9972%" fy="50.0016%">
  </radialGradient>
  <radialGradient id="id145" gradientUnits="objectBoundingBox" xlink:href="#id133" cx="50%" cy="50%" r="50%" fx="50%" fy="50%">
  </radialGradient>
  <radialGradient id="id146" gradientUnits="objectBoundingBox" xlink:href="#id133" cx="49.9983%" cy="50%" r="50%" fx="49.9983%" fy="50%">
  </radialGradient>
  <radialGradient id="id147" gradientUnits="objectBoundingBox" xlink:href="#id133" cx="50%" cy="50%" r="50%" fx="50%" fy="50%">
  </radialGradient>
  <radialGradient id="id148" gradientUnits="objectBoundingBox" xlink:href="#id133" cx="49.9988%" cy="50.0023%" r="50.0012%" fx="49.9988%" fy="50.0023%">
  </radialGradient>
  <radialGradient id="id149" gradientUnits="objectBoundingBox" xlink:href="#id133" cx="50%" cy="50.0014%" r="50.0014%" fx="50%" fy="50.0014%">
  </radialGradient>
  <radialGradient id="id150" gradientUnits="objectBoundingBox" xlink:href="#id133" cx="50%" cy="50%" r="50%" fx="50%" fy="50%">
  </radialGradient>
  <radialGradient id="id151" gradientUnits="objectBoundingBox" xlink:href="#id133" cx="49.9989%" cy="50.0022%" r="50.0011%" fx="49.9989%" fy="50.0022%">
  </radialGradient>
  <radialGradient id="id152" gradientUnits="objectBoundingBox" xlink:href="#id133" cx="49.9984%" cy="50.0014%" r="50.0014%" fx="49.9984%" fy="50.0014%">
  </radialGradient>
  <radialGradient id="id153" gradientUnits="objectBoundingBox" xlink:href="#id133" cx="50%" cy="50.0012%" r="50.0012%" fx="50%" fy="50.0012%">
  </radialGradient>
  <radialGradient id="id154" gradientUnits="objectBoundingBox" xlink:href="#id133" cx="50%" cy="50%" r="50%" fx="50%" fy="50%">
  </radialGradient>
  <radialGradient id="id155" gradientUnits="objectBoundingBox" xlink:href="#id133" cx="50%" cy="50.0014%" r="50.0014%" fx="50%" fy="50.0014%">
  </radialGradient>
  <radialGradient id="id156" gradientUnits="objectBoundingBox" xlink:href="#id133" cx="50%" cy="50%" r="50%" fx="50%" fy="50%">
  </radialGradient>
 </defs>
 <g id="Layer_x0020_1">
  <metadata id="CorelCorpID_0Corel-Layer"/>
  <rect class="fil0" x="2660" y="2662" width="24000" height="15000"/>
  <path class="fil1" style="mask:url(#id0)" d="M17056 10318c-1253,-569 -313,-1518 626,-1328 0,-569 1566,-759 2192,-190 0,-759 1879,-759 1879,0 940,-569 2506,190 1879,759 940,190 627,1139 0,1139 940,189 627,1138 0,1138 627,569 -939,1328 -1879,569 -313,759 -2192,759 -2192,0 -626,569 -1879,380 -1566,-190 -939,190 -1566,-569 -939,-948 -627,0 -940,-949 0,-949z"/>
  <path class="fil2" style="mask:url(#id2)" d="M9763 10318c-1253,-569 -314,-1518 626,-1328 0,-569 1566,-759 2192,-190 0,-759 1879,-759 1879,0 940,-569 2505,190 1879,759 940,190 626,1139 0,1139 940,189 626,1138 0,1138 626,569 -939,1328 -1879,569 -313,759 -2192,759 -2192,0 -626,569 -1879,380 -1566,-190 -939,190 -1566,-569 -939,-948 -627,0 -940,-949 0,-949z"/>
  <path class="fil3" d="M7394 4348l465 0c3,75 5,123 5,144 0,118 -18,210 -53,276 -38,74 -114,125 -227,152 -113,26 -307,40 -584,40 -291,0 -498,-6 -621,-17 -124,-11 -217,-33 -280,-65 -56,-29 -98,-68 -125,-117 -27,-49 -45,-117 -54,-203 -6,-69 -10,-194 -10,-375 0,-177 4,-305 10,-383 7,-78 20,-139 39,-182 43,-97 129,-160 259,-188 130,-29 392,-44 786,-44 197,0 340,5 429,14 90,9 161,26 214,50 69,33 118,81 147,146 28,64 42,160 42,285 0,6 0,32 -2,76l-465 0c-2,-51 -6,-84 -9,-101 -5,-18 -13,-31 -26,-43 -18,-15 -63,-27 -135,-33 -73,-8 -182,-11 -329,-11 -146,0 -246,3 -302,9 -56,7 -96,19 -119,38 -28,22 -47,60 -57,112 -11,53 -17,137 -17,253 0,115 5,197 15,244 10,47 28,81 56,102 26,20 67,34 125,40 56,7 158,10 302,10 179,0 297,-3 357,-8 59,-7 99,-20 120,-39 28,-26 42,-87 44,-182z"/>
  <polygon id="1" class="fil3" points="7978,3919 8248,3919 8248,4937 7978,4937 "/>
  <path id="2" class="fil3" d="M8861 4196c123,0 215,5 275,15 61,10 109,27 143,52 36,26 60,59 73,101 13,42 20,108 20,198 0,67 -2,117 -6,151 -4,33 -10,64 -20,90 -26,68 -79,111 -158,129 -65,16 -174,23 -326,23 -135,0 -231,-5 -289,-14 -58,-10 -104,-29 -139,-58 -34,-27 -56,-63 -67,-107 -11,-44 -17,-119 -17,-224 0,-59 2,-104 7,-135 5,-32 14,-60 28,-86 27,-52 73,-88 138,-106 65,-19 178,-28 338,-29zm2 203c-89,0 -149,7 -180,21 -23,11 -39,28 -48,52 -10,25 -15,61 -15,109 0,47 5,81 12,101 8,21 23,36 46,46 34,16 96,24 185,24 102,0 167,-11 196,-32 28,-21 42,-70 42,-146 0,-48 -4,-83 -13,-105 -9,-21 -25,-37 -48,-47 -35,-15 -93,-23 -177,-23z"/>
  <path id="3" class="fil3" d="M10447 4937l-254 0 0 -109 -14 0c-21,47 -55,79 -102,98 -47,20 -116,29 -207,29 -83,0 -150,-7 -199,-21 -49,-14 -89,-37 -122,-70 -33,-33 -54,-71 -64,-111 -10,-41 -15,-110 -15,-208l0 -330 270 0 0 330c0,52 2,90 7,112 5,23 15,41 30,56 15,14 35,25 60,30 25,6 63,9 115,9 87,0 146,-13 177,-40 19,-17 32,-39 38,-65 6,-27 9,-74 9,-142l0 -290 271 0 0 722z"/>
  <path id="4" class="fil3" d="M11566 3919l0 1018 -255 0 0 -95 -14 0c-19,33 -40,56 -63,69 -49,30 -135,44 -256,44 -97,0 -173,-5 -225,-17 -53,-11 -95,-31 -125,-60 -30,-27 -51,-62 -62,-106 -11,-45 -16,-111 -16,-201 0,-62 3,-112 9,-150 6,-38 17,-71 31,-100 29,-54 79,-89 150,-107 52,-13 132,-19 241,-19 95,0 163,8 204,24 41,15 74,46 100,92l11 0 0 -392 270 0zm-497 479c-106,0 -174,10 -204,31 -30,20 -45,66 -45,138 0,55 4,93 13,117 9,23 26,39 50,49 32,13 89,19 170,19 100,0 167,-10 200,-31 16,-10 28,-26 35,-48 6,-22 10,-54 10,-97 0,-49 -5,-85 -14,-108 -9,-23 -25,-40 -47,-49 -33,-14 -89,-21 -168,-21z"/>
  <path class="fil3" d="M4794 6500l0 -1528 1045 0c207,0 341,4 400,12 151,21 254,69 307,147 53,77 80,215 80,413 0,189 -22,322 -66,398 -30,51 -72,91 -125,117 -54,27 -127,46 -221,56 -66,8 -189,11 -371,11l-584 0 0 374 -465 0zm465 -756l581 0c106,-1 170,-2 193,-5 24,-2 45,-8 63,-17 24,-13 41,-32 49,-58 9,-25 14,-65 14,-120 0,-54 -6,-94 -17,-119 -11,-25 -31,-44 -59,-55 -21,-8 -102,-13 -243,-15l-581 0 0 389z"/>
  <path id="1" class="fil3" d="M7224 5759c123,0 215,5 276,15 60,9 108,27 142,51 36,26 60,60 73,102 13,41 20,108 20,198 0,67 -2,117 -6,151 -4,33 -10,63 -20,90 -26,68 -79,111 -158,129 -65,15 -174,23 -326,23 -135,0 -231,-5 -289,-14 -58,-10 -104,-29 -139,-58 -34,-27 -56,-63 -67,-107 -11,-45 -17,-119 -17,-224 0,-59 3,-105 7,-136 5,-31 14,-59 28,-85 27,-53 73,-88 138,-107 65,-18 178,-27 338,-28zm3 203c-90,0 -150,7 -181,21 -23,11 -39,28 -48,52 -10,25 -15,61 -15,108 0,48 5,81 12,102 8,20 23,36 46,46 34,16 96,24 185,24 102,0 167,-11 196,-32 28,-21 42,-70 42,-146 0,-48 -4,-83 -13,-105 -9,-22 -25,-37 -48,-47 -35,-15 -93,-23 -176,-23z"/>
  <polygon id="2" class="fil3" points="7751,5778 8037,5778 8203,6302 8394,5778 8650,5778 8845,6294 9014,5778 9302,5778 9033,6500 8667,6500 8525,6075 8379,6500 8019,6500 "/>
  <path id="3" class="fil3" d="M10018 6269l269 0c-7,78 -31,135 -72,169 -34,30 -84,51 -147,62 -64,12 -159,18 -286,18 -105,0 -186,-5 -242,-15 -56,-10 -100,-28 -133,-53 -35,-26 -59,-61 -72,-105 -13,-44 -19,-112 -19,-203 0,-68 2,-120 7,-154 5,-35 15,-66 29,-94 29,-58 81,-95 156,-112 65,-15 165,-23 301,-23 121,0 205,5 254,13 88,15 148,48 181,98 33,50 49,135 49,254 0,12 0,36 -2,73l-705 0c0,37 2,64 7,79 4,16 14,29 27,40 27,20 88,30 182,30 61,0 106,-3 136,-8 30,-4 50,-12 61,-23 9,-9 15,-24 19,-46zm4 -220c-1,-28 -3,-48 -6,-58 -3,-11 -8,-21 -16,-29 -23,-24 -86,-36 -187,-36 -91,0 -151,8 -181,24 -29,16 -45,49 -46,99l436 0z"/>
  <path id="4" class="fil3" d="M10394 5778l254 0 0 108 14 0c25,-46 60,-79 102,-98 43,-19 102,-29 178,-29 109,0 185,22 228,64 43,43 64,118 64,227 0,6 -1,22 -2,48l-254 0c0,-42 -5,-71 -14,-88 -17,-32 -60,-48 -129,-48 -64,0 -109,18 -136,52 -14,18 -23,39 -27,65 -5,25 -7,66 -7,121l0 300 -271 0 0 -722z"/>
  <path class="fil3" d="M3650 7767l450 0c-1,76 15,125 46,147 22,14 51,23 86,25 36,3 147,5 335,7 196,-1 314,-2 354,-4 39,-2 71,-8 94,-18 34,-14 51,-52 51,-115 0,-46 -12,-76 -36,-91 -25,-16 -74,-24 -148,-26 -58,0 -179,-4 -365,-13 -190,-9 -314,-14 -371,-16 -112,-3 -198,-14 -257,-32 -60,-17 -107,-46 -141,-85 -57,-66 -86,-176 -86,-329 0,-173 33,-295 99,-366 50,-55 126,-90 230,-106 104,-15 314,-22 632,-22 224,0 382,6 472,19 141,19 237,58 289,116 52,59 78,158 78,297 0,12 0,36 0,71l-451 0c-1,-42 -4,-71 -10,-87 -6,-16 -17,-28 -33,-38 -20,-12 -56,-20 -107,-23 -50,-3 -158,-5 -322,-5 -197,0 -318,6 -361,18 -43,13 -65,47 -65,103 0,53 22,86 65,98 36,10 200,19 493,28 247,8 411,16 495,27 83,10 149,29 198,57 56,34 96,80 119,138 23,59 34,143 34,253 0,144 -19,251 -58,321 -29,51 -69,90 -121,115 -52,25 -125,42 -219,52 -101,8 -288,13 -562,13 -230,0 -400,-6 -509,-18 -110,-12 -192,-33 -248,-64 -57,-33 -97,-76 -119,-130 -21,-54 -33,-135 -33,-245l2 -72z"/>
  <path id="1" class="fil3" d="M5714 7384l270 0 0 167 428 0 0 192 -428 0 0 210c0,57 4,93 12,107 13,25 45,37 95,37 53,0 85,-11 97,-35 5,-10 9,-19 10,-28 0,-10 1,-33 1,-71l247 0c-1,69 -5,119 -13,150 -7,31 -21,60 -42,86 -27,34 -64,58 -111,72 -48,13 -118,20 -212,20 -86,0 -151,-4 -193,-14 -42,-9 -76,-27 -102,-53 -20,-19 -33,-39 -42,-62 -9,-22 -14,-53 -16,-92 -1,-15 -1,-53 -1,-117l0 -210 -142 0 0 -192 142 0 0 -167z"/>
  <path id="2" class="fil3" d="M6805 7777l-269 0c4,-56 16,-99 36,-128 32,-46 82,-77 150,-93 68,-17 183,-25 345,-25 118,0 199,5 243,14 43,8 80,28 110,58 24,24 40,53 49,87 8,33 13,83 13,148l0 435 -260 0 0 -98 -13 0c-20,42 -51,72 -94,90 -23,10 -55,17 -96,21 -42,4 -107,5 -197,5 -73,0 -128,-4 -167,-13 -40,-10 -71,-25 -95,-48 -35,-33 -52,-87 -52,-163 0,-84 20,-144 62,-181 32,-30 76,-49 129,-57 54,-9 153,-14 297,-14 62,0 106,4 133,11 26,7 50,22 71,46l12 0 0 -39c0,-56 -11,-92 -32,-106 -21,-15 -72,-22 -154,-22 -97,0 -157,4 -180,11 -22,8 -36,28 -41,61zm182 192c-91,0 -148,6 -170,17 -26,12 -39,32 -39,58 0,29 13,49 39,59 26,11 75,16 147,16 95,0 159,-6 192,-17 34,-12 51,-33 51,-65 0,-28 -15,-48 -44,-59 -13,-5 -72,-8 -176,-9z"/>
  <path id="3" class="fil3" d="M7680 7384l270 0 0 167 428 0 0 192 -428 0 0 210c0,57 4,93 12,107 13,25 45,37 95,37 53,0 85,-11 97,-35 5,-10 8,-19 10,-28 0,-10 1,-33 1,-71l247 0c-1,69 -5,119 -13,150 -7,31 -21,60 -42,86 -27,34 -64,58 -111,72 -48,13 -118,20 -212,20 -86,0 -151,-4 -193,-14 -42,-9 -76,-27 -102,-53 -20,-19 -34,-39 -42,-62 -9,-22 -14,-53 -16,-92 -1,-15 -1,-53 -1,-117l0 -210 -142 0 0 -192 142 0 0 -167z"/>
  <path id="4" class="fil3" d="M8483 7551l270 0 0 722 -270 0 0 -722zm0 -296l270 0 0 203 -270 0 0 -203z"/>
  <path id="5" class="fil3" d="M9367 7533c122,0 214,4 275,14 61,10 108,27 142,52 36,26 60,60 73,101 13,42 20,108 20,198 0,67 -2,118 -6,151 -4,33 -10,64 -20,90 -26,68 -79,111 -157,129 -66,16 -175,23 -327,23 -134,0 -231,-4 -289,-14 -58,-10 -104,-29 -139,-58 -33,-27 -56,-63 -67,-107 -11,-44 -17,-119 -17,-223 0,-60 3,-105 8,-136 4,-31 13,-60 27,-86 27,-52 73,-88 138,-106 65,-19 178,-28 339,-28zm2 203c-89,0 -150,6 -181,20 -23,11 -39,28 -48,53 -10,24 -14,60 -14,108 0,47 4,81 12,101 7,21 22,36 45,46 34,16 96,24 185,24 102,0 167,-10 196,-32 28,-21 43,-70 43,-146 0,-48 -5,-83 -14,-104 -9,-22 -25,-38 -48,-48 -34,-15 -93,-22 -176,-22z"/>
  <path id="6" class="fil3" d="M9979 7551l254 0 0 110 15 0c24,-47 60,-80 106,-99 46,-20 113,-29 200,-29 87,0 155,6 204,20 49,14 90,37 122,70 33,34 55,71 65,112 9,41 15,111 15,210l0 328 -271 0 0 -328c0,-58 -2,-97 -6,-118 -4,-21 -14,-38 -28,-53 -26,-25 -87,-38 -181,-38 -93,0 -155,15 -185,47 -16,18 -27,39 -32,64 -5,26 -7,71 -7,137l0 289 -271 0 0 -722z"/>
  <g id="_1021852848">
   <path class="fil4" d="M10023 13212c-2534,-487 -634,-1299 1266,-1136 0,-487 3167,-650 4434,-163 0,-649 3801,-649 3801,0 1900,-487 5067,163 3800,650 1901,162 1267,973 0,973 1901,163 1267,974 0,974 1267,487 -1900,1136 -3800,487 -634,649 -4434,649 -4434,0 -1267,487 -3801,325 -3167,-162 -1900,162 -3167,-487 -1900,-812 -1267,0 -1901,-811 0,-811z"/>
   <path class="fil5" d="M10175 12902c-2534,-487 -633,-1299 1267,-1136 0,-487 3167,-649 4434,-163 0,-649 3800,-649 3800,0 1901,-486 5068,163 3801,650 1900,162 1267,973 0,973 1900,163 1267,974 0,974 1267,487 -1900,1136 -3801,487 -633,649 -4434,649 -4434,0 -1266,487 -3800,325 -3167,-162 -1900,162 -3167,-487 -1900,-812 -1267,0 -1900,-811 0,-811z"/>
  </g>
  <g id="_1021854576">
   <path class="fil6" d="M19582 6985c180,90 451,90 631,0 60,2134 120,4268 180,6402 -351,125 -649,134 -992,0l181 -6402z"/>
   <path class="fil7" d="M20213 6985c-201,-79 -428,-69 -631,0"/>
  </g>
  <g id="_1021841040">
   <path class="fil6" d="M20664 6985c180,90 451,90 631,0 60,2134 120,4268 180,6402 -351,125 -649,134 -992,0l181 -6402z"/>
   <path class="fil7" d="M21295 6985c-201,-79 -428,-69 -631,0"/>
  </g>
  <g id="_1021832976">
   <path class="fil6" d="M18500 6985c180,90 451,90 631,0 60,2134 120,4268 180,6402 -351,125 -649,134 -992,0l181 -6402z"/>
   <path class="fil7" d="M19131 6985c-201,-79 -428,-69 -631,0"/>
  </g>
  <g id="_1021838704">
   <path class="fil6" d="M12278 8634c812,90 1623,90 2255,0 -181,451 0,1533 360,3426 -1172,271 -1983,271 -2975,0 90,-1172 631,-2434 360,-3426z"/>
   <path class="fil6" d="M12278 8634c722,90 1533,90 2255,0 -782,-140 -1894,-90 -2255,0z"/>
  </g>
  <g id="_1021847664">
   <path class="fil8" d="M19627 7030c180,90 451,90 631,0 60,2134 120,4268 180,6402 -351,125 -649,134 -991,0l180 -6402z"/>
   <path class="fil7" d="M20258 7030c-201,-79 -428,-69 -631,0"/>
  </g>
  <path class="fil9" d="M20181 7436c129,-153 70,-340 222,-808 385,-1183 -677,-1864 -937,-1334 -2,5 63,-619 -683,-810 -276,-70 -468,-22 -595,318 -63,169 48,170 -167,-133 -402,-566 -1272,-570 -1452,-522 -262,70 -813,559 -813,1050 0,319 257,551 249,550 -151,-28 -724,-202 -455,344 337,683 754,595 1238,262 70,-48 286,-290 286,-399 0,317 -144,575 323,719 152,47 338,5 463,-78 106,-70 256,-275 256,-432 9,1 2,269 51,398 330,869 1151,719 1280,875 35,42 408,143 734,0z"/>
  <g id="_1021835824">
   <path class="fil10" d="M12323 8653c812,90 1623,90 2255,0 -181,451 0,1533 360,3426 -1172,271 -1983,271 -2975,0 90,-1172 631,-2434 360,-3426z"/>
   <path class="fil7" d="M12323 8653c361,-90 1473,-140 2255,0"/>
  </g>
  <g id="_1021842384">
   <path class="fil6" d="M13721 9236c812,90 1623,90 2254,0 -180,451 0,1533 361,3427 -1172,270 -1984,270 -2976,0 91,-1173 632,-2435 361,-3427z"/>
   <path class="fil6" d="M13721 9236c721,90 1533,90 2254,0 -781,-140 -1893,-90 -2254,0z"/>
  </g>
  <g id="_1021861104">
   <path class="fil11" d="M13766 9281c812,91 1623,91 2254,0 -180,451 0,1533 361,3427 -1172,270 -1984,270 -2976,0 91,-1173 632,-2435 361,-3427z"/>
   <path class="fil12" d="M13766 9281c721,91 1533,91 2254,0 -781,-140 -1893,-90 -2254,0z"/>
  </g>
  <g id="_1021858192">
   <path class="fil13" d="M15209 9915c811,90 1623,90 2254,0 -180,451 0,1533 361,3427 -1173,270 -1984,270 -2976,0 90,-1173 631,-2435 361,-3427z"/>
   <path class="fil7" d="M15209 9915c360,-90 1473,-140 2254,0"/>
  </g>
  <g id="_1021851984">
   <path class="fil14" d="M20709 7030c180,90 451,90 631,0 60,2134 120,4268 180,6402 -351,125 -649,134 -991,0l180 -6402z"/>
   <path class="fil7" d="M21340 7030c-201,-79 -428,-69 -631,0"/>
  </g>
  <g id="_1021840368">
   <path class="fil15" d="M18545 7030c180,90 451,90 631,0 60,2134 120,4268 180,6402 -351,125 -649,134 -991,0l180 -6402z"/>
   <path class="fil7" d="M19176 7030c-201,-79 -428,-69 -631,0"/>
  </g>
  <path class="fil16" d="M18998 7474c134,-121 142,17 300,-355 399,-940 -703,-1480 -973,-1059 -2,3 65,-493 -709,-644 -286,-56 -486,-17 -617,253 -66,134 49,134 -174,-106 -417,-449 -955,-573 -1507,-414 -247,71 -844,443 -844,833 0,254 267,436 259,437 -188,28 -500,259 -438,437 306,872 1489,-98 1547,-272 -58,174 -102,565 221,675 322,110 909,-143 860,-509 -21,366 577,1160 1572,827 93,-32 451,2 503,-103z"/>
  <path class="fil16" d="M21758 7280c373,164 776,-386 445,-447 631,-539 591,-1086 -134,-995 -4,0 830,-32 474,-412 216,-106 44,-310 -163,-310 622,-90 346,-690 103,-901 -121,-106 -1244,-361 -1244,360 -518,-541 -1251,380 -518,1082 -518,181 -1037,812 290,1752 113,80 670,3 747,-129z"/>
  <path class="fil6" d="M12323 8650c722,90 1533,90 2255,0 -782,-140 -1894,-90 -2255,0z"/>
  <path class="fil6" d="M15209 9915c721,90 1537,108 2254,0 -781,-140 -1894,-90 -2254,0z"/>
  <path class="fil17" d="M7484 4438l465 0c3,75 5,123 5,144 0,118 -18,210 -53,276 -38,74 -114,125 -227,152 -112,27 -307,40 -584,40 -291,0 -498,-6 -621,-17 -124,-11 -217,-33 -280,-65 -55,-29 -97,-68 -125,-117 -27,-49 -45,-117 -54,-203 -6,-69 -10,-194 -10,-375 0,-177 4,-304 10,-383 7,-78 20,-139 40,-182 42,-97 128,-160 258,-188 130,-29 392,-43 786,-43 197,0 340,4 429,13 90,9 161,26 215,50 69,33 117,82 146,146 28,65 42,160 42,285 0,6 0,32 -2,76l-465 0c-2,-51 -5,-84 -9,-101 -4,-17 -13,-31 -25,-43 -18,-15 -64,-26 -136,-33 -72,-8 -182,-11 -329,-11 -145,0 -246,3 -302,10 -56,6 -96,18 -119,37 -27,22 -47,60 -57,113 -11,53 -17,137 -17,252 0,116 5,197 15,244 10,48 28,82 56,102 26,20 68,34 125,41 57,6 158,9 302,9 179,0 297,-3 357,-8 59,-6 99,-19 120,-39 28,-26 42,-86 44,-182z"/>
  <polygon id="1" class="fil17" points="8068,4009 8338,4009 8338,5027 8068,5027 "/>
  <path id="2" class="fil17" d="M8952 4287c122,0 214,4 275,14 60,10 108,27 142,52 36,26 60,60 73,101 13,42 20,108 20,198 0,67 -2,118 -6,151 -4,33 -10,64 -20,90 -26,68 -79,111 -157,129 -66,16 -175,23 -327,23 -135,0 -231,-4 -289,-14 -58,-10 -104,-29 -139,-58 -34,-27 -56,-63 -67,-107 -11,-44 -17,-119 -17,-223 0,-60 3,-105 7,-136 5,-31 14,-60 28,-86 27,-52 73,-88 138,-106 65,-19 178,-28 339,-28zm2 203c-89,0 -150,7 -181,20 -23,11 -39,28 -48,53 -10,24 -14,60 -14,108 0,47 4,81 12,101 7,21 22,36 45,46 34,16 96,24 185,24 102,0 167,-10 196,-32 28,-21 43,-70 43,-146 0,-48 -5,-83 -14,-104 -9,-22 -25,-38 -48,-48 -34,-15 -93,-22 -176,-22z"/>
  <path id="3" class="fil17" d="M10537 5027l-254 0 0 -108 -14 0c-21,46 -55,79 -102,98 -47,19 -116,28 -207,28 -83,0 -149,-6 -198,-20 -50,-14 -90,-38 -123,-70 -32,-34 -54,-71 -64,-112 -10,-40 -15,-110 -15,-208l0 -330 270 0 0 330c0,53 3,90 7,113 5,22 15,40 30,55 15,15 35,25 60,31 25,6 63,8 115,8 87,0 146,-13 177,-40 19,-17 32,-39 38,-65 7,-27 10,-74 10,-142l0 -290 270 0 0 722z"/>
  <path id="4" class="fil17" d="M11656 4009l0 1018 -254 0 0 -95 -15 0c-19,33 -40,56 -63,70 -49,29 -135,43 -256,43 -97,0 -172,-5 -225,-17 -53,-11 -94,-31 -125,-59 -30,-27 -50,-63 -62,-107 -11,-44 -16,-111 -16,-201 0,-62 3,-112 9,-150 6,-38 17,-71 32,-100 28,-54 78,-89 149,-107 52,-13 132,-19 241,-19 95,0 163,8 204,24 41,15 74,46 100,92l11 0 0 -392 270 0zm-497 479c-106,0 -174,10 -204,31 -30,20 -45,67 -45,138 0,55 4,93 13,117 9,23 26,39 50,49 32,13 89,19 170,19 100,0 167,-10 200,-31 17,-10 28,-26 35,-48 6,-22 10,-54 10,-97 0,-49 -5,-85 -14,-108 -9,-23 -24,-39 -47,-49 -33,-14 -89,-21 -168,-21z"/>
  <path class="fil17" d="M4884 6590l0 -1528 1045 0c207,0 341,5 400,13 152,20 254,69 307,146 53,77 80,215 80,414 0,188 -22,321 -66,397 -30,51 -71,91 -125,117 -54,27 -127,46 -220,57 -66,7 -190,11 -371,11l-585 0 0 373 -465 0zm465 -756l581 0c106,-1 170,-2 194,-4 23,-3 44,-8 63,-18 23,-13 40,-32 48,-58 9,-25 14,-65 14,-119 0,-55 -6,-95 -17,-120 -11,-25 -31,-43 -59,-55 -21,-8 -102,-13 -243,-15l-581 0 0 389z"/>
  <path id="1" class="fil17" d="M7315 5849c122,0 214,5 275,15 61,10 108,27 142,52 36,26 61,59 73,101 13,42 20,108 20,198 0,67 -2,117 -6,151 -4,33 -10,64 -20,90 -26,68 -78,111 -157,129 -66,16 -175,23 -327,23 -134,0 -231,-5 -289,-14 -58,-10 -104,-29 -139,-58 -33,-27 -56,-63 -67,-107 -11,-44 -17,-119 -17,-224 0,-59 3,-104 8,-135 4,-32 13,-60 27,-86 27,-52 73,-88 138,-106 65,-19 178,-28 339,-29zm2 203c-89,0 -150,7 -181,21 -23,11 -39,28 -48,53 -9,24 -14,60 -14,108 0,47 4,81 12,101 8,21 23,36 45,46 34,16 96,24 185,24 102,0 167,-11 196,-32 28,-21 43,-70 43,-146 0,-48 -5,-83 -14,-105 -9,-21 -25,-37 -48,-47 -34,-15 -93,-23 -176,-23z"/>
  <polygon id="2" class="fil17" points="7842,5868 8127,5868 8293,6392 8484,5868 8740,5868 8935,6384 9104,5868 9392,5868 9123,6590 8757,6590 8615,6165 8469,6590 8109,6590 "/>
  <path id="3" class="fil17" d="M10108 6359l269 0c-7,78 -31,135 -71,169 -35,30 -84,51 -148,63 -64,11 -159,17 -286,17 -105,0 -186,-5 -242,-15 -56,-10 -100,-28 -133,-52 -35,-27 -59,-62 -72,-106 -13,-44 -19,-112 -19,-203 0,-68 3,-120 7,-154 6,-35 15,-66 29,-94 29,-57 81,-95 156,-112 65,-15 165,-23 301,-23 121,0 206,5 255,13 87,15 147,48 180,98 33,50 49,135 49,255 0,11 0,35 -1,73l-706 0c0,36 2,63 7,78 4,16 14,29 28,40 27,20 87,30 182,30 60,0 105,-3 135,-7 30,-5 51,-13 62,-24 8,-8 15,-24 18,-46zm4 -219c-1,-29 -3,-49 -6,-59 -2,-11 -8,-21 -16,-29 -23,-24 -85,-36 -187,-36 -91,0 -151,8 -180,24 -30,16 -45,49 -47,100l436 0z"/>
  <path id="4" class="fil17" d="M10484 5868l254 0 0 108 14 0c26,-46 60,-78 102,-98 43,-19 102,-29 178,-29 109,0 185,22 228,64 43,43 64,119 64,227 0,6 -1,23 -2,48l-254 0c0,-42 -5,-71 -14,-88 -17,-32 -60,-48 -129,-48 -64,0 -109,18 -136,53 -13,17 -23,38 -27,64 -5,25 -7,66 -7,121l0 300 -271 0 0 -722z"/>
  <path class="fil17" d="M3740 7857l450 0c-1,76 15,125 46,147 23,15 51,23 87,26 35,2 147,4 334,6 197,-1 315,-2 354,-4 40,-2 71,-8 94,-18 34,-14 51,-52 51,-115 0,-45 -12,-76 -36,-91 -24,-15 -74,-24 -148,-25 -57,0 -179,-5 -365,-14 -190,-9 -313,-14 -371,-15 -111,-4 -197,-15 -257,-32 -60,-18 -107,-47 -141,-86 -57,-66 -86,-176 -86,-329 0,-173 33,-295 99,-366 50,-55 127,-90 230,-105 104,-16 314,-23 632,-23 224,0 382,6 473,19 140,19 236,58 288,117 52,58 78,157 78,296 0,12 0,36 0,72l-450 0c-2,-43 -5,-72 -11,-88 -5,-15 -16,-28 -33,-38 -20,-12 -56,-19 -106,-23 -51,-3 -158,-5 -322,-5 -198,0 -318,6 -362,18 -43,13 -64,47 -64,103 0,54 21,86 64,99 36,9 200,18 493,27 247,8 412,17 495,27 83,10 149,29 198,57 56,34 96,80 119,139 23,58 34,142 34,252 0,144 -19,251 -58,321 -29,51 -69,90 -121,115 -52,25 -125,43 -219,52 -100,9 -288,13 -562,13 -230,0 -400,-6 -509,-18 -110,-12 -192,-33 -247,-64 -58,-33 -97,-76 -120,-130 -21,-54 -32,-135 -32,-245l1 -72z"/>
  <path id="1" class="fil17" d="M5804 7475l270 0 0 166 428 0 0 192 -428 0 0 211c0,56 4,92 12,106 14,25 45,38 96,38 52,0 84,-12 97,-36 5,-10 8,-19 9,-28 0,-9 1,-33 1,-71l247 0c-1,69 -5,119 -12,150 -8,31 -22,60 -42,86 -27,34 -65,58 -112,72 -47,14 -118,21 -212,21 -86,0 -150,-5 -192,-15 -42,-9 -77,-27 -103,-53 -20,-18 -33,-39 -42,-61 -8,-23 -13,-54 -15,-93 -2,-14 -2,-53 -2,-116l0 -211 -142 0 0 -192 142 0 0 -166z"/>
  <path id="2" class="fil17" d="M6895 7867l-269 0c4,-56 16,-98 36,-127 32,-47 82,-78 150,-94 68,-17 183,-25 345,-25 119,0 199,5 243,14 43,9 80,28 110,58 24,24 40,53 49,87 9,33 13,83 13,149l0 434 -260 0 0 -98 -13 0c-19,42 -51,72 -94,91 -23,9 -55,16 -96,20 -41,4 -107,6 -197,6 -72,0 -128,-5 -167,-14 -40,-9 -71,-25 -95,-48 -35,-33 -52,-87 -52,-162 0,-84 21,-145 62,-182 33,-29 76,-48 129,-57 54,-9 153,-14 297,-14 62,0 106,4 133,11 26,7 50,22 71,46l12 0 0 -39c0,-56 -11,-92 -32,-106 -20,-15 -72,-22 -154,-22 -97,0 -157,4 -180,11 -22,8 -36,28 -41,61zm182 192c-91,0 -148,6 -169,17 -27,12 -40,32 -40,58 0,29 13,49 39,59 26,11 75,16 147,16 95,0 159,-6 193,-17 33,-11 50,-33 50,-64 0,-29 -15,-49 -44,-60 -13,-5 -72,-8 -176,-9z"/>
  <path id="3" class="fil17" d="M7770 7475l270 0 0 166 428 0 0 192 -428 0 0 211c0,56 4,92 12,106 14,25 45,38 96,38 52,0 84,-12 97,-36 5,-10 8,-19 9,-28 0,-9 1,-33 1,-71l247 0c-1,69 -5,119 -12,150 -8,31 -22,60 -42,86 -27,34 -65,58 -112,72 -47,14 -118,21 -212,21 -86,0 -150,-5 -192,-15 -42,-9 -77,-27 -103,-53 -20,-18 -33,-39 -42,-61 -8,-23 -13,-54 -16,-93 -1,-14 -1,-53 -1,-116l0 -211 -142 0 0 -192 142 0 0 -166z"/>
  <path id="4" class="fil17" d="M8573 7641l271 0 0 722 -271 0 0 -722zm0 -296l271 0 0 203 -271 0 0 -203z"/>
  <path id="5" class="fil17" d="M9457 7623c122,0 214,5 275,14 61,10 108,27 143,52 35,26 60,60 73,101 13,42 19,108 19,198 0,67 -2,118 -6,151 -3,34 -10,64 -20,91 -26,67 -78,110 -157,128 -66,16 -175,24 -327,24 -134,0 -231,-5 -289,-15 -58,-10 -104,-29 -139,-58 -33,-27 -55,-63 -67,-107 -11,-44 -16,-119 -16,-223 0,-60 2,-105 7,-136 4,-31 13,-60 27,-85 27,-53 73,-89 138,-107 65,-18 178,-28 339,-28zm2 203c-89,0 -150,7 -181,21 -22,10 -39,27 -48,52 -9,24 -14,60 -14,108 0,47 4,81 12,101 8,21 23,36 45,47 34,16 96,23 185,23 102,0 167,-10 196,-32 28,-21 43,-70 43,-146 0,-47 -5,-82 -14,-104 -9,-22 -25,-38 -48,-48 -34,-15 -93,-22 -176,-22z"/>
  <path id="6" class="fil17" d="M10070 7641l253 0 0 110 15 0c24,-47 60,-80 106,-99 47,-20 114,-29 200,-29 87,0 155,7 204,20 50,14 90,37 122,71 33,33 55,71 65,111 10,41 15,111 15,210l0 328 -271 0 0 -328c0,-58 -2,-97 -6,-118 -4,-20 -13,-38 -28,-53 -26,-25 -86,-38 -181,-38 -93,0 -155,16 -185,47 -16,18 -27,39 -32,64 -5,26 -7,71 -7,138l0 288 -270 0 0 -722z"/>
  <path class="fil3" style="mask:url(#id4)" d="M15023 14229c-865,-484 -216,-1290 432,-1129 0,-484 1080,-645 1513,-161 0,-645 1296,-645 1296,0 649,-484 1729,161 1297,645 648,161 432,967 0,967 648,161 432,967 0,967 432,484 -648,1129 -1297,484 -216,645 -1512,645 -1512,0 -433,484 -1297,323 -1081,-161 -648,161 -1080,-484 -648,-806 -432,0 -648,-806 0,-806z"/>
  <path class="fil3" style="mask:url(#id6)" d="M18265 14187c-1234,-454 -308,-1210 617,-1059 0,-454 1542,-605 2159,-151 0,-606 1851,-606 1851,0 925,-454 2467,151 1850,605 926,151 617,908 0,908 926,151 617,908 0,908 617,454 -925,1059 -1850,454 -309,605 -2159,605 -2159,0 -617,454 -1851,302 -1542,-152 -926,152 -1543,-454 -926,-756 -617,0 -925,-757 0,-757z"/>
  <path class="fil3" style="mask:url(#id8)" d="M22563 12218c-657,-258 -164,-689 328,-603 0,-258 821,-344 1149,-86 0,-344 985,-344 985,0 493,-258 1313,86 985,345 492,86 328,516 0,516 492,86 328,516 0,516 328,258 -492,602 -985,258 -164,344 -1149,344 -1149,0 -328,258 -985,172 -821,-86 -492,86 -820,-258 -492,-430 -328,0 -492,-430 0,-430z"/>
  <path class="fil3" style="mask:url(#id10)" d="M6945 13051c-972,-454 -243,-1210 486,-1059 0,-454 1215,-605 1701,-151 0,-605 1459,-605 1459,0 729,-454 1944,151 1458,605 729,151 486,908 0,908 729,151 486,908 0,908 486,454 -729,1059 -1458,454 -243,605 -1702,605 -1702,0 -486,454 -1458,303 -1215,-151 -729,151 -1215,-454 -729,-757 -486,0 -729,-757 0,-757z"/>
  <g id="_1021357808">
   <path class="fil18 str0" d="M20556 5486c1,199 99,299 80,398 -19,100 -77,200 -194,200 -117,0 -137,-100 -118,-200 19,-99 155,-199 232,-398z"/>
   <path class="fil19 str0" d="M20465 5554c179,66 334,14 410,64 77,50 128,134 50,235 -78,101 -180,85 -257,35 -77,-49 -76,-201 -203,-334z"/>
   <path class="fil20 str0" d="M20452 5654c179,-133 235,-284 331,-334 96,-50 205,-66 244,36 39,101 -44,185 -140,234 -95,50 -230,-1 -435,64z"/>
   <path class="fil21 str0" d="M20509 5732c-1,-199 -99,-298 -80,-398 19,-100 77,-199 194,-199 117,0 137,99 118,199 -19,100 -155,199 -232,398z"/>
   <path class="fil22 str0" d="M20625 5676c-179,-65 -334,-14 -410,-64 -77,-50 -128,-133 -50,-234 78,-102 181,-86 257,-36 77,50 76,201 203,334z"/>
   <path class="fil23 str0" d="M20656 5537c-178,134 -235,285 -330,335 -96,49 -205,65 -244,-36 -39,-101 43,-185 139,-234 96,-50 231,1 435,-65z"/>
   <polygon class="fil24" points="20580,5470 20618,5483 20656,5496 20674,5530 20692,5564 20684,5606 20676,5648 20645,5682 20613,5717 20571,5730 20528,5743 20490,5730 20453,5717 20435,5682 20416,5648 20424,5606 20432,5564 20464,5530 20495,5496 20538,5483 "/>
  </g>
  <g id="_1021354928">
   <path class="fil25 str0" d="M14606 4931c134,237 355,355 391,474 37,119 12,237 -172,237 -183,0 -281,-118 -318,-237 -36,-119 111,-237 99,-474z"/>
   <path class="fil26 str0" d="M14508 5012c326,78 534,17 688,76 154,60 289,159 235,280 -55,120 -227,101 -381,42 -153,-59 -252,-239 -542,-398z"/>
   <path class="fil27 str0" d="M14556 5131c191,-158 179,-338 296,-397 117,-60 278,-79 407,42 129,120 54,220 -63,279 -117,59 -363,-2 -640,76z"/>
   <path class="fil28 str0" d="M14697 5224c-135,-237 -355,-355 -391,-474 -37,-118 -12,-237 171,-237 184,0 282,119 318,237 37,119 -110,237 -98,474z"/>
   <path class="fil29 str0" d="M14842 5158c-325,-79 -534,-18 -687,-77 -154,-59 -290,-159 -235,-279 55,-121 227,-102 380,-42 154,59 253,239 542,398z"/>
   <path class="fil30 str0" d="M14798 4992c-191,159 -179,339 -296,398 -117,59 -278,78 -407,-42 -129,-121 -54,-220 63,-280 117,-59 363,2 640,-76z"/>
   <polygon class="fil31" points="14634,4911 14701,4927 14769,4942 14821,4983 14872,5024 14888,5074 14903,5124 14877,5165 14850,5205 14792,5221 14734,5236 14666,5221 14598,5205 14547,5165 14495,5124 14480,5074 14464,5024 14491,4983 14517,4942 14575,4927 "/>
  </g>
  <g id="_1021336528">
   <path class="fil32 str0" d="M22179 5956c161,165 362,165 418,264 57,99 66,231 -78,330 -144,98 -248,32 -305,-67 -57,-99 30,-296 -35,-527z"/>
   <path class="fil33 str0" d="M22122 6089c273,-96 421,-270 556,-293 134,-24 264,3 249,153 -14,150 -153,223 -287,247 -134,23 -254,-103 -518,-107z"/>
   <path class="fil34 str0" d="M22187 6184c112,-262 60,-436 138,-558 77,-123 198,-228 327,-177 130,52 95,191 18,313 -78,123 -285,194 -483,422z"/>
   <path class="fil35 str0" d="M22319 6201c-161,-165 -361,-165 -418,-264 -57,-99 -66,-231 78,-330 144,-99 248,-33 305,66 57,99 -30,297 35,528z"/>
   <path class="fil36 str0" d="M22417 6055c-273,97 -421,271 -556,294 -134,24 -264,-3 -249,-153 14,-150 153,-224 287,-247 134,-23 255,103 518,106z"/>
   <path class="fil37 str0" d="M22344 5914c-112,261 -60,435 -138,557 -77,123 -198,228 -328,177 -129,-51 -95,-191 -17,-313 77,-123 284,-194 483,-421z"/>
   <polygon class="fil38" points="22196,5921 22252,5900 22309,5880 22359,5892 22409,5905 22433,5947 22457,5989 22446,6044 22435,6099 22393,6146 22351,6193 22294,6214 22238,6235 22188,6222 22138,6209 22114,6167 22090,6125 22101,6070 22112,6015 22154,5968 "/>
  </g>
  <g id="_1021364464">
   <path class="fil39 str0" d="M22072 4433c-63,-184 -205,-233 -215,-334 -10,-101 25,-219 157,-271 133,-53 187,31 197,132 9,101 -114,254 -139,473z"/>
   <path class="fil40 str0" d="M22154 4329c-224,19 -383,136 -485,124 -103,-12 -187,-67 -130,-196 56,-128 178,-159 280,-147 103,12 149,152 335,219z"/>
   <path class="fil41 str0" d="M22137 4230c-160,204 -177,369 -270,458 -93,89 -211,153 -288,76 -76,-76 -8,-191 85,-280 93,-89 262,-101 473,-254z"/>
   <path class="fil42 str0" d="M22048 4183c64,185 206,234 216,334 10,101 -25,220 -157,272 -133,52 -187,-31 -197,-132 -9,-101 114,-254 138,-474z"/>
   <path class="fil43 str0" d="M21934 4287c224,-19 383,-135 486,-123 102,12 186,67 130,195 -57,129 -178,160 -281,148 -103,-12 -149,-153 -335,-220z"/>
   <path class="fil44 str0" d="M21942 4430c161,-203 178,-369 271,-458 93,-89 211,-152 287,-75 76,76 9,191 -84,280 -93,88 -262,101 -474,253z"/>
   <polygon class="fil45" points="22050,4459 22003,4464 21956,4469 21925,4445 21893,4422 21889,4379 21885,4336 21910,4290 21935,4245 21979,4214 22023,4183 22070,4178 22117,4173 22148,4197 22180,4220 22184,4263 22188,4306 22163,4351 22138,4397 22094,4428 "/>
  </g>
  <g id="_1021356304">
   <path class="fil46 str0" d="M16294 6472c53,212 239,290 234,402 -6,112 -75,235 -267,268 -192,34 -250,-67 -245,-179 6,-112 203,-257 278,-491z"/>
   <path class="fil47 str0" d="M16162 6570c311,19 552,-80 690,-49 139,32 244,106 142,237 -101,130 -274,142 -412,111 -139,-31 -176,-193 -420,-299z"/>
   <path class="fil48 str0" d="M16167 6681c259,-193 312,-371 457,-451 144,-81 318,-129 409,-32 90,97 -24,210 -168,290 -145,81 -379,64 -698,193z"/>
   <path class="fil49 str0" d="M16280 6748c-53,-212 -239,-291 -233,-402 5,-112 74,-235 266,-268 192,-34 251,67 245,179 -5,111 -203,257 -278,491z"/>
   <path class="fil50 str0" d="M16457 6655c-311,-19 -551,80 -690,49 -139,-31 -244,-106 -142,-236 101,-131 274,-143 413,-112 138,31 176,193 419,299z"/>
   <path class="fil51 str0" d="M16472 6498c-258,193 -312,371 -456,451 -145,81 -319,129 -409,32 -91,-97 24,-210 168,-290 144,-81 379,-64 697,-193z"/>
   <polygon class="fil52" points="16330,6447 16395,6450 16460,6453 16499,6485 16538,6516 16535,6563 16533,6611 16490,6656 16448,6701 16381,6727 16315,6754 16250,6750 16184,6747 16146,6716 16107,6685 16109,6637 16112,6590 16154,6545 16197,6499 16263,6473 "/>
  </g>
  <g id="_1021353808">
   <path class="fil53 str0" d="M19249 4705c39,199 156,299 156,399 0,99 -39,199 -156,199 -117,0 -156,-100 -156,-199 0,-100 117,-200 156,-399z"/>
   <path class="fil54 str0" d="M19171 4773c192,66 337,15 423,64 86,50 153,134 94,235 -58,101 -164,85 -250,35 -86,-49 -114,-200 -267,-334z"/>
   <path class="fil55 str0" d="M19178 4874c153,-134 180,-285 267,-335 86,-49 192,-65 250,36 58,101 -8,185 -95,234 -86,50 -230,-1 -422,65z"/>
   <path class="fil56 str0" d="M19249 4952c-39,-200 -156,-299 -156,-399 0,-99 39,-199 156,-199 117,0 156,100 156,199 0,100 -117,199 -156,399z"/>
   <path class="fil57 str0" d="M19355 4896c-192,-66 -337,-15 -423,-65 -86,-49 -153,-133 -95,-234 59,-102 165,-85 251,-36 86,50 114,201 267,335z"/>
   <path class="fil58 str0" d="M19359 4757c-153,133 -180,284 -267,334 -86,50 -192,66 -250,-36 -59,-101 8,-184 95,-234 86,-50 230,1 422,-64z"/>
   <polygon class="fil59" points="19270,4689 19310,4702 19351,4715 19375,4749 19400,4783 19400,4825 19400,4867 19375,4902 19351,4936 19310,4949 19270,4962 19230,4949 19190,4936 19165,4902 19141,4867 19141,4825 19141,4783 19165,4749 19190,4715 19230,4702 "/>
  </g>
  <g id="_1021364176">
   <path class="fil60 str0" d="M17039 7399c22,112 88,168 88,225 0,56 -22,112 -88,112 -66,0 -88,-56 -88,-112 0,-57 66,-113 88,-225z"/>
   <path class="fil61 str0" d="M16995 7437c108,37 190,8 238,37 49,28 87,75 54,132 -33,57 -93,48 -142,20 -48,-28 -64,-113 -150,-189z"/>
   <path class="fil62 str0" d="M16998 7494c87,-75 102,-161 151,-189 49,-28 108,-37 141,20 33,58 -4,105 -53,133 -49,28 -130,-1 -239,36z"/>
   <path class="fil63 str0" d="M17039 7538c-22,-112 -88,-169 -88,-225 0,-56 22,-112 88,-112 66,0 88,56 88,112 0,56 -66,113 -88,225z"/>
   <path class="fil64 str0" d="M17098 7506c-108,-37 -190,-8 -238,-36 -49,-28 -87,-75 -54,-132 33,-57 93,-48 142,-20 48,28 64,113 150,188z"/>
   <path class="fil65 str0" d="M17101 7428c-86,75 -102,160 -151,189 -48,28 -108,37 -141,-21 -33,-57 5,-104 53,-132 49,-28 131,1 239,-36z"/>
   <polygon class="fil66" points="17051,7390 17073,7397 17096,7404 17110,7424 17124,7443 17124,7467 17124,7491 17110,7510 17096,7529 17073,7536 17051,7544 17028,7536 17005,7529 16991,7510 16977,7491 16977,7467 16977,7443 16991,7424 17005,7404 17028,7397 "/>
  </g>
  <g id="_1019472752">
   <path class="fil67 str0" d="M20642 6784c35,179 140,269 140,359 0,89 -35,179 -140,179 -106,0 -141,-90 -141,-179 0,-90 106,-180 141,-359z"/>
   <path class="fil68 str0" d="M20571 6845c173,60 303,13 381,58 78,45 138,120 85,211 -53,91 -148,77 -225,32 -78,-45 -103,-181 -241,-301z"/>
   <path class="fil69 str0" d="M20577 6936c138,-120 163,-256 241,-301 77,-45 172,-59 225,32 53,91 -8,166 -85,211 -78,45 -208,-2 -381,58z"/>
   <path class="fil70 str0" d="M20642 7006c-35,-179 -141,-269 -141,-359 0,-89 35,-179 141,-179 105,0 140,90 140,179 0,90 -105,180 -140,359z"/>
   <path class="fil71 str0" d="M20737 6955c-173,-59 -303,-12 -381,-57 -77,-45 -137,-120 -85,-211 53,-92 148,-77 226,-32 77,44 102,180 240,300z"/>
   <path class="fil72 str0" d="M20741 6830c-138,120 -163,256 -240,301 -78,45 -173,59 -226,-32 -52,-91 8,-166 85,-211 78,-45 208,2 381,-58z"/>
   <polygon class="fil73" points="20661,6769 20697,6781 20733,6793 20755,6824 20778,6854 20778,6892 20778,6930 20755,6961 20733,6992 20697,7003 20661,7015 20625,7003 20589,6992 20566,6961 20544,6930 20544,6892 20544,6854 20566,6824 20589,6793 20625,6781 "/>
  </g>
  <g id="_1019462576">
   <path class="fil74 str1" d="M19482 6474c-13,106 46,187 26,235 -20,47 -66,84 -146,50 -79,-33 -86,-92 -66,-139 20,-48 120,-62 186,-146z"/>
   <path class="fil75 str1" d="M19415 6485c118,86 226,102 275,151 48,48 77,107 17,139 -60,31 -128,-7 -177,-55 -49,-48 -37,-128 -115,-235z"/>
   <path class="fil76 str1" d="M19400 6534c130,-20 179,-84 248,-83 69,1 144,23 163,88 20,65 -43,86 -111,85 -69,-1 -157,-66 -300,-90z"/>
   <path class="fil77 str1" d="M19433 6592c13,-106 -46,-187 -27,-235 20,-47 67,-83 146,-50 80,33 86,92 66,139 -20,48 -119,62 -185,146z"/>
   <path class="fil78 str1" d="M19516 6595c-117,-86 -226,-103 -275,-151 -48,-48 -77,-107 -17,-139 60,-31 129,7 177,55 49,48 38,128 115,235z"/>
   <path class="fil79 str1" d="M19547 6530c-131,20 -180,84 -249,84 -68,-1 -143,-24 -163,-89 -19,-65 43,-86 111,-85 69,1 157,67 301,90z"/>
   <polygon class="fil80" points="19500,6473 19524,6490 19549,6508 19559,6531 19569,6555 19561,6575 19552,6595 19529,6604 19505,6613 19475,6608 19445,6603 19420,6585 19396,6567 19386,6544 19376,6521 19384,6501 19393,6481 19416,6471 19440,6462 19470,6467 "/>
  </g>
  <g id="_1019462736">
   <path class="fil81 str1" d="M24059 5121c-23,170 78,299 45,375 -34,76 -113,134 -248,81 -135,-53 -147,-147 -113,-223 34,-76 203,-99 316,-233z"/>
   <path class="fil82 str1" d="M23945 5138c200,137 385,164 467,241 83,78 132,172 30,223 -102,50 -219,-10 -302,-88 -82,-77 -63,-205 -195,-376z"/>
   <path class="fil83 str1" d="M23919 5217c222,-32 306,-134 422,-133 117,1 244,37 277,141 34,104 -72,138 -189,136 -116,-1 -266,-107 -510,-144z"/>
   <path class="fil84 str1" d="M23975 5309c23,-169 -78,-299 -45,-375 34,-76 113,-134 248,-80 135,53 147,147 113,223 -34,76 -203,98 -316,232z"/>
   <path class="fil85 str1" d="M24117 5315c-200,-138 -385,-165 -467,-242 -83,-77 -132,-172 -30,-222 102,-51 219,10 302,87 82,77 63,205 195,377z"/>
   <path class="fil86 str1" d="M24169 5211c-222,32 -306,134 -422,133 -117,-1 -244,-37 -278,-141 -33,-104 73,-137 189,-136 117,1 267,107 511,144z"/>
   <polygon class="fil87" points="24089,5119 24131,5147 24173,5175 24190,5212 24207,5250 24193,5282 24178,5314 24138,5329 24098,5343 24047,5335 23996,5327 23954,5299 23912,5270 23895,5233 23878,5196 23893,5163 23907,5131 23947,5117 23987,5102 24038,5110 "/>
  </g>
  <g id="_1019464240">
   <path class="fil88 str1" d="M14701 6375c-96,-73 -209,-60 -244,-107 -36,-46 -45,-112 33,-171 77,-59 138,-32 174,14 35,46 -7,152 37,264z"/>
   <path class="fil89 str1" d="M14729 6304c-151,66 -229,163 -304,184 -75,20 -149,15 -146,-62 3,-77 79,-123 154,-143 75,-20 147,36 296,21z"/>
   <path class="fil90 str1" d="M14689 6261c-54,139 -19,223 -59,290 -40,67 -104,128 -179,110 -75,-18 -60,-90 -20,-157 39,-67 154,-116 258,-243z"/>
   <path class="fil91 str1" d="M14614 6260c96,74 209,61 244,107 36,47 45,113 -33,172 -77,59 -138,32 -174,-14 -35,-47 8,-152 -37,-265z"/>
   <path class="fil92 str1" d="M14563 6340c151,-66 229,-163 304,-184 75,-20 149,-15 146,62 -3,77 -79,123 -154,143 -75,20 -147,-36 -296,-21z"/>
   <path class="fil93 str1" d="M14610 6407c54,-139 19,-224 59,-290 39,-67 104,-128 179,-110 74,17 60,90 20,157 -40,66 -154,115 -258,243z"/>
   <polygon class="fil94" points="14693,6394 14662,6408 14630,6422 14602,6419 14573,6415 14558,6396 14543,6376 14548,6347 14552,6319 14574,6293 14596,6266 14627,6252 14659,6238 14687,6241 14716,6245 14731,6265 14746,6284 14741,6313 14737,6341 14715,6367 "/>
  </g>
  <g id="_1019480208">
   <path class="fil95 str1" d="M20696 4300c59,89 157,112 172,161 16,49 4,107 -78,133 -82,26 -125,-14 -141,-63 -15,-49 51,-124 47,-231z"/>
   <path class="fil96 str1" d="M20652 4351c145,-11 239,-68 307,-63 68,5 128,31 103,94 -25,63 -102,79 -170,74 -68,-5 -112,-74 -240,-105z"/>
   <path class="fil97 str1" d="M20672 4399c87,-100 83,-181 135,-225 53,-43 125,-75 182,-38 57,37 23,93 -30,137 -52,43 -162,50 -287,126z"/>
   <path class="fil98 str1" d="M20735 4421c-59,-89 -157,-112 -172,-161 -16,-49 -4,-107 78,-133 82,-26 125,14 141,63 15,49 -51,124 -47,231z"/>
   <path class="fil99 str1" d="M20800 4370c-145,10 -238,68 -307,63 -68,-5 -128,-31 -103,-94 25,-63 102,-79 170,-74 69,5 112,74 240,105z"/>
   <path class="fil100 str1" d="M20782 4300c-87,100 -82,181 -135,225 -53,44 -125,75 -182,39 -57,-37 -23,-93 30,-137 53,-44 162,-51 287,-127z"/>
   <polygon class="fil101" points="20709,4287 20739,4284 20769,4282 20792,4293 20815,4304 20821,4325 20828,4346 20816,4368 20804,4391 20778,4406 20751,4422 20721,4424 20691,4427 20668,4415 20645,4404 20639,4383 20632,4363 20644,4340 20656,4318 20682,4302 "/>
  </g>
  <g id="_1019470800">
   <path class="fil102 str0" d="M18188 6845c-103,199 -69,366 -137,452 -69,87 -171,147 -272,66 -102,-80 -67,-193 1,-279 68,-87 238,-93 408,-239z"/>
   <path class="fil103 str0" d="M18073 6850c122,189 283,243 324,346 40,102 41,220 -79,268 -120,48 -201,-38 -242,-141 -40,-102 39,-252 -3,-473z"/>
   <path class="fil104 str0" d="M18010 6942c225,-11 352,-123 461,-107 109,15 212,74 193,202 -18,128 -134,155 -242,139 -109,-16 -200,-160 -412,-234z"/>
   <path class="fil105 str0" d="M18019 7059c103,-200 69,-366 138,-453 68,-86 170,-146 271,-66 102,80 67,193 -1,280 -68,86 -238,92 -408,239z"/>
   <path class="fil106 str0" d="M18149 7083c-121,-189 -282,-243 -323,-346 -41,-102 -41,-220 79,-268 120,-48 201,38 241,141 41,102 -38,252 3,473z"/>
   <path class="fil107 str0" d="M18249 6965c-225,11 -352,123 -461,107 -109,-16 -212,-74 -193,-202 18,-128 133,-155 242,-139 109,16 200,160 412,234z"/>
   <polygon class="fil108" points="18218,6845 18243,6884 18269,6923 18268,6969 18266,7016 18237,7053 18208,7089 18163,7102 18118,7114 18074,7098 18031,7082 18005,7043 17979,7005 17981,6958 17983,6911 18011,6875 18040,6838 18085,6825 18130,6813 18174,6829 "/>
  </g>
  <g id="_1019483728">
   <path class="fil109 str2" d="M15960 5722c-52,101 -35,185 -70,228 -34,44 -85,74 -137,34 -51,-41 -33,-98 1,-141 34,-44 120,-47 206,-121z"/>
   <path class="fil110 str2" d="M15902 5725c61,95 142,123 163,174 20,52 21,111 -40,135 -60,25 -101,-19 -122,-70 -20,-52 20,-128 -1,-239z"/>
   <path class="fil111 str2" d="M15870 5771c113,-5 177,-62 232,-54 55,8 107,38 97,102 -9,65 -67,78 -122,70 -55,-8 -100,-80 -207,-118z"/>
   <path class="fil112 str2" d="M15875 5830c51,-100 34,-184 69,-228 34,-43 85,-73 137,-33 51,40 33,97 -1,141 -34,43 -120,47 -205,120z"/>
   <path class="fil113 str2" d="M15940 5842c-61,-95 -142,-122 -163,-174 -20,-51 -21,-111 40,-135 60,-24 101,19 122,71 20,51 -20,127 1,238z"/>
   <path class="fil114 str2" d="M15990 5783c-113,6 -177,62 -232,54 -55,-8 -107,-37 -97,-102 9,-64 67,-78 122,-70 55,8 100,81 207,118z"/>
   <polygon class="fil115" points="15974,5723 15988,5742 16001,5762 16000,5785 15999,5809 15984,5827 15970,5846 15947,5852 15924,5858 15902,5850 15880,5842 15867,5823 15854,5803 15855,5779 15856,5756 15871,5738 15885,5719 15908,5713 15930,5706 15952,5714 "/>
  </g>
  <g id="_1019472272">
   <path class="fil116 str2" d="M22136 7405c-68,133 -46,243 -91,300 -45,58 -113,97 -180,44 -67,-53 -45,-128 1,-185 45,-58 157,-62 270,-159z"/>
   <path class="fil117 str2" d="M22060 7409c81,125 188,161 215,229 27,68 28,146 -52,178 -80,32 -134,-25 -161,-93 -27,-68 26,-168 -2,-314z"/>
   <path class="fil118 str2" d="M22019 7470c148,-8 233,-82 305,-72 73,11 141,50 128,135 -12,84 -88,102 -161,92 -72,-11 -132,-106 -272,-155z"/>
   <path class="fil119 str2" d="M22024 7547c68,-132 46,-243 92,-300 45,-58 113,-97 180,-44 67,53 44,128 -1,185 -45,58 -158,62 -271,159z"/>
   <path class="fil120 str2" d="M22111 7563c-81,-125 -188,-161 -215,-229 -27,-68 -27,-147 52,-178 80,-32 134,25 161,93 27,68 -26,168 2,314z"/>
   <path class="fil121 str2" d="M22177 7485c-149,7 -234,82 -306,71 -72,-10 -141,-49 -128,-134 12,-85 88,-103 161,-92 72,10 132,106 273,155z"/>
   <polygon class="fil122" points="22156,7405 22173,7431 22190,7457 22189,7488 22188,7519 22169,7543 22150,7567 22120,7576 22090,7584 22061,7573 22032,7563 22015,7537 21998,7511 21999,7480 22000,7449 22019,7425 22038,7401 22068,7392 22098,7384 22127,7395 "/>
  </g>
  <g id="_1019456112">
   <path class="fil123 str2" d="M18216 3700c-64,126 -43,231 -86,286 -44,55 -108,92 -172,42 -64,-51 -43,-122 1,-177 43,-55 150,-59 257,-151z"/>
   <path class="fil124 str2" d="M18144 3704c77,119 178,153 204,218 26,64 26,139 -49,169 -76,31 -127,-24 -153,-89 -26,-64 24,-159 -2,-298z"/>
   <path class="fil125 str2" d="M18104 3761c142,-7 222,-77 291,-67 69,10 134,47 122,127 -11,81 -84,98 -153,88 -69,-10 -126,-101 -260,-148z"/>
   <path class="fil126 str2" d="M18110 3835c64,-126 43,-231 87,-286 43,-54 107,-92 171,-42 64,51 43,123 0,177 -44,55 -151,59 -258,151z"/>
   <path class="fil127 str2" d="M18192 3850c-77,-119 -178,-153 -204,-218 -26,-65 -26,-139 49,-169 76,-31 127,24 153,88 26,65 -24,160 2,299z"/>
   <path class="fil128 str2" d="M18255 3776c-142,7 -223,78 -291,68 -69,-10 -134,-47 -122,-128 11,-81 84,-98 153,-88 69,10 126,101 260,148z"/>
   <polygon class="fil129" points="18235,3700 18251,3725 18268,3749 18267,3779 18266,3808 18247,3831 18229,3854 18201,3862 18172,3870 18145,3860 18117,3850 18101,3825 18084,3801 18085,3772 18087,3742 18105,3719 18123,3696 18151,3688 18180,3680 18207,3690 "/>
  </g>
  <g id="_1019464528">
   <path class="fil130 str2" d="M13561 6091c-81,158 -54,289 -108,357 -54,69 -135,116 -215,53 -80,-64 -53,-153 1,-221 54,-68 188,-74 322,-189z"/>
   <path class="fil131 str2" d="M13471 6096c96,148 223,191 255,272 32,81 33,174 -62,212 -95,38 -159,-30 -191,-111 -32,-81 31,-199 -2,-373z"/>
   <path class="fil132 str2" d="M13421 6168c177,-9 278,-97 364,-85 86,13 167,59 152,160 -14,101 -105,122 -191,110 -86,-13 -158,-127 -325,-185z"/>
   <path class="fil133 str2" d="M13428 6260c81,-158 55,-289 108,-357 54,-69 135,-116 215,-53 80,64 53,153 -1,221 -54,68 -188,74 -322,189z"/>
   <path class="fil134 str2" d="M13531 6279c-96,-149 -223,-192 -255,-273 -33,-81 -33,-174 62,-212 95,-38 158,31 191,111 32,81 -31,200 2,374z"/>
   <path class="fil135 str2" d="M13609 6186c-177,9 -278,97 -364,85 -86,-13 -167,-59 -152,-160 15,-101 105,-122 192,-110 86,13 157,126 324,185z"/>
   <polygon class="fil136" points="13585,6091 13605,6122 13626,6153 13624,6189 13623,6226 13600,6255 13577,6284 13542,6294 13506,6304 13472,6291 13437,6279 13417,6248 13396,6217 13398,6180 13399,6144 13422,6115 13445,6086 13480,6076 13516,6066 13550,6079 "/>
  </g>
  <g id="_1019476144">
   <path class="fil137 str0" d="M18301 5499c-63,151 3,277 -48,342 -51,65 -142,110 -259,50 -117,-61 -105,-146 -54,-211 51,-65 220,-70 361,-181z"/>
   <path class="fil138 str0" d="M18188 5504c158,142 330,183 391,260 61,77 85,167 -26,203 -111,36 -208,-29 -269,-106 -61,-78 -11,-191 -96,-357z"/>
   <path class="fil139 str0" d="M18143 5573c222,-8 327,-93 439,-81 112,12 227,56 233,152 7,97 -103,117 -215,105 -112,-12 -231,-120 -457,-176z"/>
   <path class="fil140 str0" d="M18174 5661c64,-151 -3,-276 49,-342 51,-65 141,-110 258,-50 118,61 106,146 54,211 -51,66 -219,71 -361,181z"/>
   <path class="fil141 str0" d="M18309 5679c-158,-142 -330,-183 -391,-261 -61,-77 -85,-166 26,-202 111,-36 208,29 269,106 61,77 11,190 96,357z"/>
   <path class="fil142 str0" d="M18385 5590c-222,8 -327,93 -439,81 -112,-12 -227,-56 -233,-152 -7,-97 103,-117 215,-105 112,12 231,120 457,176z"/>
   <polygon class="fil143" points="18331,5500 18364,5529 18398,5558 18405,5593 18412,5629 18391,5656 18369,5684 18327,5693 18284,5703 18237,5691 18190,5679 18157,5649 18123,5620 18116,5585 18109,5550 18130,5522 18152,5494 18194,5485 18237,5475 18284,5487 "/>
  </g>
  <g id="_1019472208">
   <path class="fil144 str0" d="M16545 4463c-2,286 157,497 124,627 -33,130 -129,233 -320,152 -191,-81 -222,-237 -189,-367 33,-130 256,-179 385,-412z"/>
   <path class="fil145 str0" d="M16396 4498c291,218 544,251 669,375 124,124 205,279 77,371 -129,92 -296,-2 -421,-126 -124,-125 -120,-341 -325,-620z"/>
   <path class="fil146 str0" d="M16373 4633c294,-68 389,-246 546,-252 157,-5 335,47 397,219 62,173 -74,236 -231,241 -158,6 -377,-161 -712,-208z"/>
   <path class="fil147 str0" d="M16464 4784c2,-286 -156,-497 -123,-627 33,-129 129,-232 320,-152 191,81 222,237 189,367 -33,130 -256,179 -386,412z"/>
   <path class="fil148 str0" d="M16656 4784c-292,-218 -545,-251 -670,-375 -124,-124 -205,-279 -77,-371 129,-92 297,2 421,126 124,125 120,341 326,620z"/>
   <path class="fil149 str0" d="M16709 4606c-294,69 -389,246 -546,252 -157,5 -335,-47 -397,-219 -62,-172 74,-235 231,-241 157,-5 377,162 712,208z"/>
   <polygon class="fil150" points="16586,4456 16647,4501 16708,4546 16737,4607 16766,4669 16753,4724 16739,4779 16687,4806 16635,4834 16565,4823 16496,4812 16434,4768 16373,4723 16344,4661 16315,4600 16329,4545 16343,4490 16394,4462 16446,4435 16516,4446 "/>
  </g>
  <path class="fil3 str3" style="mask:url(#id12)" d="M10912 13672c-813,-496 -203,-1322 406,-1157 0,-496 1016,-661 1423,-165 0,-661 1219,-661 1219,0 609,-496 1625,165 1219,661 609,165 406,991 0,991 609,166 406,992 0,992 406,496 -610,1157 -1219,496 -204,661 -1423,661 -1423,0 -406,496 -1219,330 -1016,-166 -609,166 -1016,-495 -609,-826 -407,0 -610,-826 0,-826z"/>
 </g>
</svg>
